<svg xmlns="http://www.w3.org/2000/svg" xmlns:xlink="http://www.w3.org/1999/xlink" width="500" zoomAndPan="magnify" viewBox="0 0 375 374.999991" height="500" preserveAspectRatio="xMidYMid meet" version="1.0"><defs><clipPath id="66fcaa3c8b"><path d="M 1.730469 1.730469 L 372.980469 1.730469 L 372.980469 372.980469 L 1.730469 372.980469 Z M 1.730469 1.730469 " clip-rule="nonzero"/></clipPath></defs><g clip-path="url(#66fcaa3c8b)"><path fill="#c2b19c" d="M 187.496094 1.730469 C 184.457031 1.730469 181.417969 1.808594 178.382812 1.957031 C 175.347656 2.105469 172.316406 2.328125 169.289062 2.625 C 166.265625 2.925781 163.246094 3.296875 160.242188 3.742188 C 157.234375 4.1875 154.238281 4.707031 151.257812 5.300781 C 148.273438 5.894531 145.308594 6.5625 142.359375 7.300781 C 139.410156 8.039062 136.480469 8.847656 133.574219 9.730469 C 130.664062 10.613281 127.777344 11.566406 124.914062 12.589844 C 122.050781 13.617188 119.21875 14.710938 116.410156 15.871094 C 113.597656 17.035156 110.820312 18.269531 108.074219 19.566406 C 105.324219 20.867188 102.609375 22.234375 99.929688 23.667969 C 97.246094 25.101562 94.601562 26.597656 91.996094 28.160156 C 89.386719 29.722656 86.820312 31.351562 84.292969 33.039062 C 81.765625 34.726562 79.277344 36.476562 76.835938 38.289062 C 74.394531 40.101562 72 41.96875 69.648438 43.898438 C 67.300781 45.828125 64.996094 47.8125 62.746094 49.855469 C 60.492188 51.894531 58.292969 53.992188 56.140625 56.140625 C 53.992188 58.292969 51.894531 60.492188 49.855469 62.746094 C 47.8125 64.996094 45.828125 67.300781 43.898438 69.648438 C 41.96875 72 40.101562 74.394531 38.289062 76.835938 C 36.476562 79.277344 34.726562 81.765625 33.039062 84.292969 C 31.351562 86.820312 29.722656 89.386719 28.160156 91.996094 C 26.597656 94.601562 25.101562 97.246094 23.667969 99.929688 C 22.234375 102.609375 20.867188 105.324219 19.566406 108.074219 C 18.269531 110.820312 17.035156 113.597656 15.871094 116.410156 C 14.710938 119.21875 13.617188 122.050781 12.589844 124.914062 C 11.566406 127.777344 10.613281 130.664062 9.730469 133.574219 C 8.847656 136.480469 8.039062 139.410156 7.300781 142.359375 C 6.5625 145.308594 5.894531 148.273438 5.300781 151.257812 C 4.707031 154.238281 4.1875 157.234375 3.742188 160.242188 C 3.296875 163.246094 2.925781 166.265625 2.625 169.289062 C 2.328125 172.316406 2.105469 175.347656 1.957031 178.382812 C 1.808594 181.417969 1.730469 184.457031 1.730469 187.496094 C 1.730469 190.539062 1.808594 193.578125 1.957031 196.613281 C 2.105469 199.648438 2.328125 202.679688 2.625 205.707031 C 2.925781 208.730469 3.296875 211.746094 3.742188 214.753906 C 4.1875 217.761719 4.707031 220.757812 5.300781 223.738281 C 5.894531 226.71875 6.5625 229.6875 7.300781 232.636719 C 8.039062 235.585938 8.847656 238.511719 9.730469 241.421875 C 10.613281 244.332031 11.566406 247.21875 12.589844 250.082031 C 13.617188 252.941406 14.710938 255.777344 15.871094 258.585938 C 17.035156 261.394531 18.269531 264.175781 19.566406 266.921875 C 20.867188 269.671875 22.234375 272.386719 23.667969 275.066406 C 25.101562 277.75 26.597656 280.394531 28.160156 283 C 29.722656 285.609375 31.351562 288.175781 33.039062 290.703125 C 34.726562 293.230469 36.476562 295.714844 38.289062 298.15625 C 40.101562 300.601562 41.96875 302.996094 43.898438 305.347656 C 45.828125 307.695312 47.8125 309.996094 49.855469 312.25 C 51.894531 314.503906 53.992188 316.703125 56.140625 318.855469 C 58.292969 321.003906 60.492188 323.097656 62.746094 325.140625 C 64.996094 327.183594 67.300781 329.167969 69.648438 331.097656 C 72 333.023438 74.394531 334.894531 76.835938 336.707031 C 79.277344 338.515625 81.765625 340.265625 84.292969 341.957031 C 86.820312 343.644531 89.386719 345.269531 91.996094 346.835938 C 94.601562 348.398438 97.246094 349.894531 99.929688 351.328125 C 102.609375 352.761719 105.324219 354.128906 108.074219 355.429688 C 110.820312 356.726562 113.597656 357.960938 116.410156 359.121094 C 119.21875 360.285156 122.050781 361.378906 124.914062 362.402344 C 127.777344 363.429688 130.664062 364.382812 133.574219 365.265625 C 136.480469 366.148438 139.410156 366.957031 142.359375 367.695312 C 145.308594 368.433594 148.273438 369.101562 151.257812 369.695312 C 154.238281 370.285156 157.234375 370.804688 160.242188 371.253906 C 163.246094 371.699219 166.265625 372.070312 169.289062 372.367188 C 172.316406 372.667969 175.347656 372.890625 178.382812 373.039062 C 181.417969 373.1875 184.457031 373.261719 187.496094 373.261719 C 190.539062 373.261719 193.578125 373.1875 196.613281 373.039062 C 199.648438 372.890625 202.679688 372.667969 205.707031 372.367188 C 208.730469 372.070312 211.746094 371.699219 214.753906 371.253906 C 217.761719 370.804688 220.757812 370.285156 223.738281 369.695312 C 226.71875 369.101562 229.6875 368.433594 232.636719 367.695312 C 235.585938 366.957031 238.511719 366.148438 241.421875 365.265625 C 244.332031 364.382812 247.21875 363.429688 250.082031 362.402344 C 252.941406 361.378906 255.777344 360.285156 258.585938 359.121094 C 261.394531 357.960938 264.175781 356.726562 266.921875 355.429688 C 269.671875 354.128906 272.386719 352.761719 275.066406 351.328125 C 277.75 349.894531 280.394531 348.398438 283 346.835938 C 285.609375 345.269531 288.175781 343.644531 290.703125 341.957031 C 293.230469 340.265625 295.714844 338.515625 298.15625 336.707031 C 300.601562 334.894531 302.996094 333.023438 305.347656 331.097656 C 307.695312 329.167969 309.996094 327.183594 312.25 325.140625 C 314.503906 323.097656 316.703125 321.003906 318.855469 318.855469 C 321.003906 316.703125 323.097656 314.503906 325.140625 312.25 C 327.183594 309.996094 329.167969 307.695312 331.097656 305.347656 C 333.023438 302.996094 334.894531 300.601562 336.707031 298.15625 C 338.515625 295.714844 340.265625 293.230469 341.957031 290.703125 C 343.644531 288.175781 345.269531 285.609375 346.835938 283 C 348.398438 280.394531 349.894531 277.75 351.328125 275.066406 C 352.761719 272.386719 354.128906 269.671875 355.429688 266.921875 C 356.726562 264.175781 357.960938 261.394531 359.121094 258.585938 C 360.285156 255.777344 361.378906 252.941406 362.402344 250.082031 C 363.429688 247.21875 364.382812 244.332031 365.265625 241.421875 C 366.148438 238.511719 366.957031 235.585938 367.695312 232.636719 C 368.433594 229.6875 369.101562 226.71875 369.695312 223.738281 C 370.285156 220.757812 370.804688 217.761719 371.253906 214.753906 C 371.699219 211.746094 372.070312 208.730469 372.367188 205.707031 C 372.667969 202.679688 372.890625 199.648438 373.039062 196.613281 C 373.1875 193.578125 373.261719 190.539062 373.261719 187.496094 C 373.261719 184.457031 373.1875 181.417969 373.039062 178.382812 C 372.890625 175.347656 372.664062 172.316406 372.367188 169.289062 C 372.070312 166.265625 371.695312 163.25 371.25 160.242188 C 370.804688 157.234375 370.285156 154.238281 369.691406 151.257812 C 369.097656 148.277344 368.429688 145.3125 367.691406 142.363281 C 366.953125 139.414062 366.140625 136.484375 365.257812 133.574219 C 364.375 130.667969 363.421875 127.78125 362.398438 124.917969 C 361.375 122.054688 360.28125 119.21875 359.117188 116.410156 C 357.953125 113.601562 356.722656 110.824219 355.421875 108.078125 C 354.121094 105.328125 352.753906 102.613281 351.320312 99.933594 C 349.886719 97.253906 348.390625 94.609375 346.828125 92 C 345.265625 89.394531 343.636719 86.824219 341.949219 84.296875 C 340.261719 81.769531 338.511719 79.285156 336.699219 76.84375 C 334.886719 74.402344 333.019531 72.003906 331.089844 69.65625 C 329.160156 67.304688 327.175781 65.003906 325.132812 62.75 C 323.09375 60.5 320.996094 58.296875 318.847656 56.148438 C 316.699219 54 314.496094 51.902344 312.242188 49.863281 C 309.992188 47.820312 307.691406 45.835938 305.339844 43.90625 C 302.988281 41.976562 300.59375 40.109375 298.152344 38.296875 C 295.710938 36.484375 293.226562 34.734375 290.699219 33.046875 C 288.171875 31.355469 285.601562 29.730469 282.996094 28.167969 C 280.386719 26.605469 277.742188 25.105469 275.0625 23.675781 C 272.382812 22.242188 269.667969 20.875 266.917969 19.574219 C 264.171875 18.273438 261.390625 17.042969 258.582031 15.878906 C 255.773438 14.714844 252.941406 13.621094 250.078125 12.597656 C 247.214844 11.574219 244.328125 10.617188 241.421875 9.738281 C 238.511719 8.855469 235.582031 8.042969 232.632812 7.304688 C 229.683594 6.566406 226.71875 5.898438 223.738281 5.304688 C 220.753906 4.710938 217.761719 4.191406 214.753906 3.746094 C 211.746094 3.300781 208.730469 2.925781 205.707031 2.628906 C 202.679688 2.332031 199.648438 2.105469 196.613281 1.957031 C 193.574219 1.808594 190.539062 1.734375 187.496094 1.730469 Z M 187.496094 71.394531 C 188.597656 71.394531 189.695312 71.425781 190.792969 71.488281 C 191.890625 71.550781 192.984375 71.644531 194.074219 71.773438 C 195.167969 71.898438 196.253906 72.054688 197.335938 72.246094 C 198.417969 72.433594 199.496094 72.65625 200.566406 72.90625 C 201.636719 73.15625 202.695312 73.441406 203.75 73.753906 C 204.804688 74.066406 205.847656 74.410156 206.882812 74.78125 C 207.914062 75.15625 208.9375 75.558594 209.945312 75.992188 C 210.957031 76.421875 211.953125 76.882812 212.9375 77.375 C 213.921875 77.863281 214.890625 78.382812 215.84375 78.929688 C 216.796875 79.476562 217.734375 80.046875 218.65625 80.648438 C 219.574219 81.25 220.476562 81.875 221.363281 82.527344 C 222.246094 83.179688 223.109375 83.859375 223.957031 84.5625 C 224.800781 85.265625 225.625 85.992188 226.425781 86.742188 C 227.230469 87.492188 228.011719 88.265625 228.769531 89.058594 C 229.527344 89.855469 230.261719 90.671875 230.972656 91.511719 C 231.683594 92.347656 232.371094 93.207031 233.03125 94.082031 C 233.691406 94.960938 234.328125 95.859375 234.9375 96.773438 C 235.546875 97.6875 236.128906 98.617188 236.6875 99.566406 C 237.242188 100.515625 237.769531 101.476562 238.269531 102.457031 C 238.769531 103.433594 239.238281 104.425781 239.683594 105.433594 C 240.125 106.4375 240.539062 107.457031 240.921875 108.488281 C 241.304688 109.515625 241.660156 110.558594 241.980469 111.609375 C 242.304688 112.65625 242.597656 113.714844 242.859375 114.785156 C 243.121094 115.851562 243.351562 116.925781 243.554688 118.007812 C 243.753906 119.085938 243.921875 120.171875 244.058594 121.261719 C 244.195312 122.351562 244.300781 123.445312 244.375 124.542969 C 244.449219 125.640625 244.492188 126.738281 244.5 127.835938 C 244.511719 128.933594 244.492188 130.03125 244.4375 131.132812 C 244.382812 132.230469 244.300781 133.324219 244.183594 134.417969 C 244.066406 135.507812 243.917969 136.597656 243.738281 137.683594 C 243.558594 138.765625 243.347656 139.84375 243.105469 140.917969 C 242.863281 141.988281 242.589844 143.050781 242.289062 144.109375 C 241.984375 145.164062 241.648438 146.210938 241.285156 147.25 C 240.921875 148.285156 240.527344 149.3125 240.105469 150.324219 C 239.679688 151.339844 239.230469 152.339844 238.746094 153.328125 C 238.265625 154.316406 237.757812 155.289062 237.21875 156.246094 C 236.679688 157.207031 236.117188 158.148438 235.523438 159.074219 C 234.933594 160 234.3125 160.90625 233.667969 161.796875 C 233.023438 162.6875 232.355469 163.558594 231.660156 164.410156 C 230.964844 165.261719 230.246094 166.089844 229.503906 166.902344 C 228.757812 167.710938 227.992188 168.5 227.203125 169.261719 C 226.414062 170.027344 225.605469 170.769531 224.773438 171.488281 C 223.941406 172.207031 223.089844 172.902344 222.21875 173.570312 C 221.347656 174.238281 220.457031 174.882812 219.546875 175.5 C 218.636719 176.117188 217.710938 176.710938 216.769531 177.273438 C 215.824219 177.835938 214.867188 178.375 213.894531 178.882812 C 212.917969 179.390625 211.929688 179.871094 210.929688 180.320312 C 209.925781 180.773438 208.914062 181.195312 207.886719 181.589844 C 206.859375 181.980469 205.824219 182.34375 204.773438 182.675781 C 203.726562 183.007812 202.671875 183.3125 201.605469 183.582031 C 200.542969 183.855469 199.46875 184.09375 198.390625 184.304688 C 197.3125 184.515625 196.226562 184.691406 195.140625 184.839844 C 194.050781 184.984375 192.957031 185.101562 191.863281 185.183594 C 190.765625 185.269531 189.667969 185.320312 188.570312 185.339844 C 187.472656 185.359375 186.371094 185.347656 185.273438 185.304688 C 184.175781 185.261719 183.082031 185.1875 181.988281 185.078125 C 180.894531 184.972656 179.804688 184.835938 178.71875 184.664062 C 177.632812 184.496094 176.550781 184.292969 175.476562 184.0625 C 174.402344 183.828125 173.335938 183.566406 172.277344 183.273438 C 171.21875 182.976562 170.167969 182.652344 169.128906 182.296875 C 168.089844 181.945312 167.058594 181.558594 166.042969 181.144531 C 165.023438 180.730469 164.019531 180.285156 163.027344 179.8125 C 162.035156 179.339844 161.058594 178.839844 160.09375 178.3125 C 159.132812 177.78125 158.183594 177.226562 157.253906 176.640625 C 109.417969 146.339844 130.144531 71.976562 187.496094 71.394531 Z M 254.316406 303.601562 L 120.679688 303.601562 C 119.300781 303.597656 117.925781 303.527344 116.554688 303.390625 C 115.183594 303.253906 113.820312 303.050781 112.46875 302.777344 C 111.117188 302.507812 109.78125 302.171875 108.460938 301.769531 C 107.140625 301.367188 105.847656 300.898438 104.574219 300.371094 C 103.300781 299.839844 102.054688 299.25 100.839844 298.597656 C 99.625 297.949219 98.445312 297.238281 97.296875 296.472656 C 96.152344 295.703125 95.046875 294.882812 93.980469 294.007812 C 92.917969 293.132812 91.898438 292.207031 90.921875 291.230469 C 89.949219 290.253906 89.023438 289.234375 88.148438 288.167969 C 87.277344 287.101562 86.457031 285.992188 85.691406 284.847656 C 84.925781 283.699219 84.214844 282.519531 83.566406 281.300781 C 82.917969 280.085938 82.328125 278.839844 81.800781 277.566406 C 81.273438 276.292969 80.808594 274.996094 80.410156 273.675781 C 80.007812 272.359375 79.675781 271.023438 79.40625 269.667969 C 79.136719 268.316406 78.933594 266.953125 78.796875 265.582031 C 78.660156 264.210938 78.59375 262.835938 78.59375 261.457031 C 78.59375 225.753906 104.890625 194.929688 142.625 181.054688 C 144.175781 182.367188 145.785156 183.609375 147.445312 184.785156 C 149.109375 185.957031 150.820312 187.054688 152.578125 188.074219 C 154.335938 189.097656 156.136719 190.042969 157.976562 190.90625 C 159.816406 191.769531 161.691406 192.550781 163.601562 193.25 C 165.511719 193.953125 167.449219 194.566406 169.414062 195.09375 C 171.378906 195.625 173.359375 196.066406 175.363281 196.421875 C 177.367188 196.777344 179.382812 197.042969 181.40625 197.222656 C 183.433594 197.402344 185.464844 197.488281 187.496094 197.488281 C 189.53125 197.488281 191.5625 197.402344 193.589844 197.222656 C 195.613281 197.042969 197.628906 196.777344 199.632812 196.421875 C 201.632812 196.066406 203.617188 195.625 205.582031 195.09375 C 207.546875 194.566406 209.484375 193.953125 211.390625 193.25 C 213.300781 192.550781 215.179688 191.769531 217.019531 190.90625 C 218.859375 190.042969 220.660156 189.097656 222.417969 188.074219 C 224.175781 187.054688 225.886719 185.957031 227.550781 184.785156 C 229.210938 183.609375 230.820312 182.367188 232.371094 181.054688 C 270.105469 194.929688 296.402344 225.753906 296.402344 261.457031 C 296.402344 262.835938 296.332031 264.210938 296.199219 265.582031 C 296.0625 266.953125 295.859375 268.316406 295.589844 269.667969 C 295.320312 271.023438 294.988281 272.359375 294.585938 273.675781 C 294.1875 274.996094 293.722656 276.292969 293.195312 277.566406 C 292.667969 278.839844 292.078125 280.085938 291.429688 281.300781 C 290.777344 282.519531 290.070312 283.699219 289.304688 284.847656 C 288.539062 285.992188 287.71875 287.101562 286.84375 288.167969 C 285.972656 289.234375 285.046875 290.253906 284.074219 291.230469 C 283.097656 292.207031 282.078125 293.132812 281.011719 294.007812 C 279.949219 294.882812 278.84375 295.703125 277.695312 296.472656 C 276.550781 297.238281 275.371094 297.949219 274.15625 298.597656 C 272.941406 299.25 271.695312 299.839844 270.421875 300.371094 C 269.148438 300.898438 267.851562 301.367188 266.535156 301.769531 C 265.214844 302.171875 263.878906 302.507812 262.527344 302.777344 C 261.175781 303.050781 259.8125 303.253906 258.441406 303.390625 C 257.070312 303.527344 255.695312 303.597656 254.316406 303.601562 Z M 254.316406 303.601562 " fill-opacity="1" fill-rule="nonzero"/></g></svg>