<svg xmlns="http://www.w3.org/2000/svg" xmlns:xlink="http://www.w3.org/1999/xlink" width="500" zoomAndPan="magnify" viewBox="0 0 375 374.999991" height="500" preserveAspectRatio="xMidYMid meet" version="1.0"><defs><g/></defs><g fill="#d0a933" fill-opacity="1"><g transform="translate(28.792247, 210.025245)"><g><path d="M 0.390625 -47.796875 C 0.390625 -49.117188 0.796875 -50.378906 1.609375 -51.578125 C 2.421875 -52.773438 3.523438 -53.734375 4.921875 -54.453125 C 6.328125 -55.171875 7.894531 -55.53125 9.625 -55.53125 C 12.28125 -55.53125 14.734375 -55.039062 16.984375 -54.0625 C 19.234375 -53.09375 21.160156 -51.953125 22.765625 -50.640625 C 24.367188 -49.328125 26.09375 -47.734375 27.9375 -45.859375 C 29.257812 -44.523438 30.28125 -43.570312 31 -43 C 31.71875 -42.425781 32.375 -42.140625 32.96875 -42.140625 C 33.40625 -42.140625 33.851562 -42.296875 34.3125 -42.609375 C 34.78125 -42.929688 35.179688 -43.347656 35.515625 -43.859375 L 38.546875 -40.9375 C 37.921875 -40.195312 37.238281 -39.601562 36.5 -39.15625 C 35.769531 -38.71875 35.085938 -38.5 34.453125 -38.5 C 33.421875 -38.5 32.40625 -38.894531 31.40625 -39.6875 C 30.414062 -40.476562 29.144531 -41.703125 27.59375 -43.359375 C 25.976562 -45.097656 24.539062 -46.507812 23.28125 -47.59375 C 22.03125 -48.6875 20.566406 -49.628906 18.890625 -50.421875 C 17.210938 -51.210938 15.378906 -51.609375 13.390625 -51.609375 C 10.546875 -51.609375 8.347656 -50.953125 6.796875 -49.640625 C 5.253906 -48.328125 4.484375 -46.734375 4.484375 -44.859375 C 4.484375 -43.753906 4.765625 -42.617188 5.328125 -41.453125 C 5.898438 -40.296875 6.757812 -39.179688 7.90625 -38.109375 L 6.078125 -38.109375 C 4.304688 -39.515625 2.914062 -41.0625 1.90625 -42.75 C 0.894531 -44.445312 0.390625 -46.128906 0.390625 -47.796875 Z M -0.78125 -38.109375 L 5.75 -38.109375 L 10.171875 -33.6875 L 10.171875 -6.140625 C 10.171875 -5.328125 10.757812 -4.375 11.9375 -3.28125 C 13.125 -2.195312 14.519531 -1.257812 16.125 -0.46875 C 17.726562 0.320312 19.082031 0.71875 20.1875 0.71875 C 20.707031 0.71875 21.234375 0.566406 21.765625 0.265625 C 22.296875 -0.0234375 22.75 -0.425781 23.125 -0.9375 L 27.15625 1.65625 C 26.125 2.800781 24.960938 3.375 23.671875 3.375 C 21.535156 3.375 19.035156 2.632812 16.171875 1.15625 C 13.316406 -0.3125 10.847656 -2.050781 8.765625 -4.0625 C 6.679688 -6.070312 5.640625 -7.816406 5.640625 -9.296875 L 5.640625 -33.6875 L -0.78125 -33.6875 Z M 8.296875 -38.109375 L 16.59375 -38.109375 L 16.59375 -33.6875 L 12.671875 -33.6875 Z M 8.296875 -38.109375 "/></g></g></g><g fill="#d0a933" fill-opacity="1"><g transform="translate(44.61254, 210.025245)"><g><path d="M 50.171875 1.65625 C 49.140625 2.800781 47.976562 3.375 46.6875 3.375 C 44.539062 3.375 42.03125 2.632812 39.15625 1.15625 C 36.28125 -0.3125 33.800781 -2.050781 31.71875 -4.0625 C 29.632812 -6.070312 28.59375 -7.816406 28.59375 -9.296875 L 28.59375 -17.09375 C 27.53125 -16.800781 26.554688 -16.65625 25.671875 -16.65625 C 23.378906 -16.65625 20.976562 -17.519531 18.46875 -19.25 C 17.4375 -17.8125 16.171875 -16.75 14.671875 -16.0625 C 13.179688 -15.382812 11.570312 -15.046875 9.84375 -15.046875 C 9.21875 -15.046875 8.738281 -15.0625 8.40625 -15.09375 C 11.425781 -10.78125 14.253906 -7.40625 16.890625 -4.96875 C 19.535156 -2.539062 21.703125 -1.328125 23.390625 -1.328125 C 24.273438 -1.328125 25.144531 -1.898438 26 -3.046875 L 29.703125 -0.0625 C 29.179688 0.53125 28.515625 1 27.703125 1.34375 C 26.898438 1.695312 26.070312 1.875 25.21875 1.875 C 23.039062 1.875 20.109375 0.234375 16.421875 -3.046875 C 12.734375 -6.328125 9.441406 -10.050781 6.546875 -14.21875 C 3.660156 -18.382812 2.21875 -21.59375 2.21875 -23.84375 C 2.21875 -24.945312 2.710938 -25.867188 3.703125 -26.609375 C 4.703125 -27.347656 5.847656 -27.71875 7.140625 -27.71875 C 8.429688 -27.71875 9.691406 -27.132812 10.921875 -25.96875 C 12.160156 -24.8125 13.128906 -23.269531 13.828125 -21.34375 C 14.640625 -21.820312 15.273438 -22.457031 15.734375 -23.25 C 16.191406 -24.050781 16.421875 -24.910156 16.421875 -25.828125 C 16.421875 -27.117188 16.085938 -28.457031 15.421875 -29.84375 C 14.765625 -31.226562 13.847656 -32.507812 12.671875 -33.6875 L -0.78125 -33.6875 L -0.78125 -38.109375 L 11.34375 -38.109375 L 15.4375 -33.6875 C 16.6875 -32.320312 17.722656 -30.742188 18.546875 -28.953125 C 19.378906 -27.160156 19.816406 -25.457031 19.859375 -23.84375 C 19.859375 -22.914062 19.671875 -21.9375 19.296875 -20.90625 C 20.335938 -20.238281 21.59375 -19.90625 23.0625 -19.90625 C 24.90625 -19.90625 26.75 -20.347656 28.59375 -21.234375 L 28.59375 -33.6875 L 17.96875 -33.6875 L 13.890625 -38.109375 L 28.703125 -38.109375 L 33.1875 -33.6875 L 33.1875 -6.140625 C 33.1875 -5.328125 33.773438 -4.375 34.953125 -3.28125 C 36.140625 -2.195312 37.535156 -1.257812 39.140625 -0.46875 C 40.742188 0.320312 42.097656 0.71875 43.203125 0.71875 C 44.265625 0.71875 45.238281 0.164062 46.125 -0.9375 Z M 35.671875 -33.6875 L 31.25 -38.109375 L 39.546875 -38.109375 L 39.546875 -33.6875 Z M 7.140625 -19.140625 C 9.054688 -19.140625 10.84375 -19.582031 12.5 -20.46875 C 12.207031 -21.382812 11.679688 -22.175781 10.921875 -22.84375 C 10.171875 -23.507812 9.40625 -23.84375 8.625 -23.84375 C 7.8125 -23.84375 7.0625 -23.609375 6.375 -23.140625 C 5.695312 -22.679688 5.359375 -22.160156 5.359375 -21.578125 C 5.359375 -20.941406 5.535156 -20.375 5.890625 -19.875 C 6.242188 -19.382812 6.660156 -19.140625 7.140625 -19.140625 Z M 7.140625 -19.140625 "/></g></g></g><g fill="#d0a933" fill-opacity="1"><g transform="translate(83.444164, 210.025245)"><g><path d="M 11.890625 -33.6875 C 13.617188 -30.988281 14.484375 -28.71875 14.484375 -26.875 C 14.484375 -25 13.617188 -23.488281 11.890625 -22.34375 C 10.160156 -21.195312 7.894531 -20.625 5.09375 -20.625 C 5.675781 -18.894531 6.675781 -17.46875 8.09375 -16.34375 C 9.519531 -15.21875 11.082031 -14.65625 12.78125 -14.65625 C 14.84375 -14.65625 16.832031 -15.179688 18.75 -16.234375 C 20.664062 -17.285156 22.289062 -18.710938 23.625 -20.515625 L 23.625 -14.546875 C 22.4375 -13.398438 21.171875 -12.519531 19.828125 -11.90625 C 18.484375 -11.300781 17.128906 -11 15.765625 -11 C 13.628906 -11 11.59375 -11.597656 9.65625 -12.796875 C 7.71875 -14.003906 6.046875 -15.648438 4.640625 -17.734375 C 3.242188 -19.816406 2.25 -22.164062 1.65625 -24.78125 L 2.375 -25.28125 C 2.96875 -25.132812 3.890625 -25.0625 5.140625 -25.0625 C 6.171875 -25.0625 7.191406 -25.269531 8.203125 -25.6875 C 9.222656 -26.113281 10.054688 -26.675781 10.703125 -27.375 C 11.347656 -28.082031 11.671875 -28.800781 11.671875 -29.53125 C 11.671875 -30.9375 10.988281 -32.320312 9.625 -33.6875 L -0.78125 -33.6875 L -0.78125 -38.109375 L 7.46875 -38.109375 Z M 22.84375 -33.6875 L 14.375 -33.6875 L 10.015625 -38.109375 L 22.84375 -38.109375 Z M 22.84375 -33.6875 "/></g></g></g><g fill="#d0a933" fill-opacity="1"><g transform="translate(105.515129, 210.025245)"><g><path d="M 28.15625 -33.6875 L 28.15625 -6.140625 C 28.15625 -5.328125 28.753906 -4.375 29.953125 -3.28125 C 31.148438 -2.195312 32.550781 -1.257812 34.15625 -0.46875 C 35.757812 0.320312 37.113281 0.71875 38.21875 0.71875 C 39.289062 0.71875 40.269531 0.164062 41.15625 -0.9375 L 45.1875 1.65625 C 44.125 2.800781 42.960938 3.375 41.703125 3.375 C 39.566406 3.375 37.0625 2.644531 34.1875 1.1875 C 31.3125 -0.269531 28.832031 -2.003906 26.75 -4.015625 C 24.664062 -6.023438 23.625 -7.75 23.625 -9.1875 L 23.625 -14.328125 C 22.507812 -13.253906 21.269531 -12.429688 19.90625 -11.859375 C 18.539062 -11.285156 17.160156 -11 15.765625 -11 C 13.546875 -11 11.441406 -11.625 9.453125 -12.875 C 7.460938 -14.132812 5.773438 -15.832031 4.390625 -17.96875 C 3.015625 -20.113281 2.085938 -22.476562 1.609375 -25.0625 L 2.265625 -25.546875 C 3.078125 -25.148438 4 -24.953125 5.03125 -24.953125 C 6.800781 -24.953125 8.347656 -25.398438 9.671875 -26.296875 C 11.003906 -27.203125 11.671875 -28.394531 11.671875 -29.875 C 11.671875 -30.90625 11.375 -31.796875 10.78125 -32.546875 C 10.195312 -33.304688 9.390625 -33.6875 8.359375 -33.6875 L -0.78125 -33.6875 L -0.78125 -38.109375 L 7.46875 -38.109375 L 11.890625 -33.6875 C 12.816406 -32.726562 13.476562 -31.648438 13.875 -30.453125 C 14.28125 -29.253906 14.484375 -28.0625 14.484375 -26.875 C 14.484375 -25 13.632812 -23.488281 11.9375 -22.34375 C 10.25 -21.195312 7.96875 -20.625 5.09375 -20.625 C 5.675781 -18.894531 6.675781 -17.46875 8.09375 -16.34375 C 9.519531 -15.21875 11.082031 -14.65625 12.78125 -14.65625 C 14.84375 -14.65625 16.832031 -15.179688 18.75 -16.234375 C 20.664062 -17.285156 22.289062 -18.710938 23.625 -20.515625 L 23.625 -33.6875 L 14.375 -33.6875 L 10.015625 -38.109375 L 23.734375 -38.109375 Z M 34.5625 -33.6875 L 30.703125 -33.6875 L 26.328125 -38.109375 L 34.5625 -38.109375 Z M 34.5625 -33.6875 "/></g></g></g><g fill="#d0a933" fill-opacity="1"><g transform="translate(139.313032, 210.025245)"><g><path d="M -0.78125 -38.109375 L 5.75 -38.109375 L 10.171875 -33.6875 L 10.171875 -6.140625 C 10.171875 -5.328125 10.757812 -4.375 11.9375 -3.28125 C 13.125 -2.195312 14.519531 -1.257812 16.125 -0.46875 C 17.726562 0.320312 19.082031 0.71875 20.1875 0.71875 C 20.707031 0.71875 21.234375 0.566406 21.765625 0.265625 C 22.296875 -0.0234375 22.75 -0.425781 23.125 -0.9375 L 27.15625 1.65625 C 26.125 2.800781 24.960938 3.375 23.671875 3.375 C 21.535156 3.375 19.035156 2.632812 16.171875 1.15625 C 13.316406 -0.3125 10.847656 -2.050781 8.765625 -4.0625 C 6.679688 -6.070312 5.640625 -7.816406 5.640625 -9.296875 L 5.640625 -33.6875 L -0.78125 -33.6875 Z M 8.296875 -38.109375 L 16.59375 -38.109375 L 16.59375 -33.6875 L 12.671875 -33.6875 Z M -16.59375 -55.484375 C -16.113281 -54.597656 -15.5625 -53.882812 -14.9375 -53.34375 C -14.3125 -52.8125 -13.722656 -52.546875 -13.171875 -52.546875 C -12.648438 -52.546875 -12.160156 -52.628906 -11.703125 -52.796875 C -11.242188 -52.960938 -10.679688 -53.191406 -10.015625 -53.484375 C -8.910156 -54.035156 -8.046875 -54.3125 -7.421875 -54.3125 C -6.679688 -54.3125 -5.832031 -53.960938 -4.875 -53.265625 C -3.914062 -52.566406 -2.921875 -51.585938 -1.890625 -50.328125 L 8.078125 -38.109375 L 5.96875 -38.109375 L -0.5 -45.578125 C -2.5625 -48.117188 -4.148438 -49.390625 -5.265625 -49.390625 C -5.773438 -49.390625 -6.640625 -49.148438 -7.859375 -48.671875 C -9.179688 -48.234375 -10.007812 -48.015625 -10.34375 -48.015625 C -11.375 -48.015625 -12.546875 -48.578125 -13.859375 -49.703125 C -15.171875 -50.828125 -16.507812 -52.363281 -17.875 -54.3125 Z M -16.59375 -55.484375 "/></g></g></g><g fill="#d0a933" fill-opacity="1"><g transform="translate(155.13332, 210.025245)"><g><path d="M -0.78125 -38.109375 L 26.65625 -38.109375 L 31.03125 -33.6875 L 31.03125 -6.140625 C 31.03125 -5.328125 31.628906 -4.375 32.828125 -3.28125 C 34.023438 -2.195312 35.425781 -1.257812 37.03125 -0.46875 C 38.632812 0.320312 39.988281 0.71875 41.09375 0.71875 C 41.613281 0.71875 42.128906 0.566406 42.640625 0.265625 C 43.160156 -0.0234375 43.601562 -0.425781 43.96875 -0.9375 L 48.125 1.65625 C 46.976562 2.800781 45.796875 3.375 44.578125 3.375 C 42.472656 3.375 39.984375 2.644531 37.109375 1.1875 C 34.234375 -0.269531 31.742188 -2.003906 29.640625 -4.015625 C 27.546875 -6.023438 26.5 -7.785156 26.5 -9.296875 L 26.5 -17.640625 C 25.09375 -19.222656 23.550781 -20.445312 21.875 -21.3125 C 20.195312 -22.1875 18.472656 -22.625 16.703125 -22.625 C 14.828125 -22.625 13.6875 -22.492188 13.28125 -22.234375 C 15.414062 -20.460938 17.070312 -18.707031 18.25 -16.96875 C 19.425781 -15.238281 20.015625 -13.710938 20.015625 -12.390625 C 20.015625 -10.910156 19.429688 -9.644531 18.265625 -8.59375 C 17.109375 -7.550781 15.757812 -7.03125 14.21875 -7.03125 C 12.445312 -7.03125 10.640625 -7.617188 8.796875 -8.796875 C 6.953125 -9.972656 5.410156 -11.457031 4.171875 -13.25 C 2.941406 -15.039062 2.328125 -16.765625 2.328125 -18.421875 C 2.328125 -19.785156 2.832031 -21.082031 3.84375 -22.3125 C 4.851562 -23.550781 6.1875 -24.554688 7.84375 -25.328125 C 9.507812 -26.109375 11.242188 -26.5 13.046875 -26.5 C 15.484375 -26.5 17.875 -25.90625 20.21875 -24.71875 C 22.5625 -23.539062 24.65625 -21.898438 26.5 -19.796875 L 26.5 -33.6875 L -0.78125 -33.6875 Z M 29.15625 -38.109375 L 37.453125 -38.109375 L 37.453125 -33.6875 L 33.578125 -33.6875 Z M 11 -10.34375 C 12.332031 -10.34375 13.503906 -10.785156 14.515625 -11.671875 C 15.535156 -12.554688 16.046875 -13.625 16.046875 -14.875 C 16.046875 -15.832031 15.644531 -16.910156 14.84375 -18.109375 C 14.050781 -19.304688 12.957031 -20.476562 11.5625 -21.625 C 9.820312 -21 8.425781 -20.132812 7.375 -19.03125 C 6.332031 -17.925781 5.8125 -16.726562 5.8125 -15.4375 C 5.8125 -14.65625 6.078125 -13.867188 6.609375 -13.078125 C 7.140625 -12.285156 7.8125 -11.628906 8.625 -11.109375 C 9.4375 -10.597656 10.226562 -10.34375 11 -10.34375 Z M 11 -10.34375 "/></g></g></g><g fill="#d0a933" fill-opacity="1"><g transform="translate(191.862947, 210.025245)"><g/></g></g><g fill="#d0a933" fill-opacity="1"><g transform="translate(203.755826, 210.025245)"><g><path d="M 23.171875 -33.6875 L 23.171875 -24.609375 C 25.492188 -27.191406 27.632812 -28.484375 29.59375 -28.484375 C 30.914062 -28.484375 32.285156 -27.972656 33.703125 -26.953125 C 35.128906 -25.941406 36.300781 -24.679688 37.21875 -23.171875 C 38.144531 -21.660156 38.609375 -20.207031 38.609375 -18.8125 C 38.609375 -17.550781 38.179688 -16.3125 37.328125 -15.09375 C 36.484375 -13.882812 35.367188 -12.84375 33.984375 -11.96875 C 32.609375 -11.101562 31.203125 -10.597656 29.765625 -10.453125 L 27.15625 -14.046875 C 29.40625 -14.421875 31.285156 -15.351562 32.796875 -16.84375 C 34.304688 -18.332031 35.0625 -20 35.0625 -21.84375 C 35.0625 -22.65625 34.773438 -23.382812 34.203125 -24.03125 C 33.640625 -24.675781 32.96875 -25 32.1875 -25 C 30.820312 -25 29.363281 -24.414062 27.8125 -23.25 C 26.269531 -22.09375 24.722656 -20.484375 23.171875 -18.421875 L 23.171875 -6.140625 C 23.171875 -5.328125 23.769531 -4.375 24.96875 -3.28125 C 26.164062 -2.195312 27.578125 -1.257812 29.203125 -0.46875 C 30.828125 0.320312 32.191406 0.71875 33.296875 0.71875 C 34.140625 0.71875 35.082031 0.164062 36.125 -0.9375 L 40.21875 1.65625 C 39.144531 2.800781 37.984375 3.375 36.734375 3.375 C 34.585938 3.375 32.078125 2.644531 29.203125 1.1875 C 26.328125 -0.269531 23.835938 -2.003906 21.734375 -4.015625 C 19.628906 -6.023438 18.578125 -7.75 18.578125 -9.1875 L 18.578125 -14.9375 C 16.585938 -12.945312 14.488281 -11.953125 12.28125 -11.953125 C 10.582031 -11.953125 8.921875 -12.429688 7.296875 -13.390625 C 5.679688 -14.347656 4.351562 -15.570312 3.3125 -17.0625 C 2.28125 -18.550781 1.765625 -20.035156 1.765625 -21.515625 C 1.765625 -22.691406 2.1875 -23.84375 3.03125 -24.96875 C 3.882812 -26.09375 4.972656 -27.003906 6.296875 -27.703125 C 7.628906 -28.410156 8.976562 -28.765625 10.34375 -28.765625 L 13.328125 -28.765625 C 14.140625 -28.765625 15.429688 -27.691406 17.203125 -25.546875 L 16.765625 -24.5625 C 15.722656 -25.144531 14.875 -25.4375 14.21875 -25.4375 C 12.738281 -25.4375 11.304688 -25.125 9.921875 -24.5 C 8.546875 -23.875 7.429688 -23.046875 6.578125 -22.015625 C 5.734375 -20.984375 5.3125 -19.894531 5.3125 -18.75 C 5.3125 -17.863281 5.707031 -17.085938 6.5 -16.421875 C 7.289062 -15.765625 8.238281 -15.4375 9.34375 -15.4375 C 10.96875 -15.4375 12.59375 -15.882812 14.21875 -16.78125 C 15.84375 -17.6875 17.296875 -18.96875 18.578125 -20.625 L 18.578125 -33.6875 L -0.78125 -33.6875 L -0.78125 -38.109375 L 19.03125 -38.109375 Z M 41.3125 -33.6875 L 25.78125 -33.6875 L 21.578125 -38.109375 L 41.3125 -38.109375 Z M 41.3125 -33.6875 "/></g></g></g><g fill="#d0a933" fill-opacity="1"><g transform="translate(232.741251, 210.025245)"><g><path d="M -32.1875 -55.484375 C -31.707031 -54.597656 -31.15625 -53.882812 -30.53125 -53.34375 C -29.90625 -52.8125 -29.316406 -52.546875 -28.765625 -52.546875 C -28.242188 -52.546875 -27.753906 -52.628906 -27.296875 -52.796875 C -26.835938 -52.960938 -26.273438 -53.191406 -25.609375 -53.484375 C -24.503906 -54.035156 -23.640625 -54.3125 -23.015625 -54.3125 C -22.273438 -54.3125 -21.425781 -53.960938 -20.46875 -53.265625 C -19.507812 -52.566406 -18.515625 -51.585938 -17.484375 -50.328125 L -7.515625 -38.109375 L -9.625 -38.109375 L -16.09375 -45.578125 C -18.15625 -48.117188 -19.742188 -49.390625 -20.859375 -49.390625 C -21.367188 -49.390625 -22.234375 -49.148438 -23.453125 -48.671875 C -24.773438 -48.234375 -25.601562 -48.015625 -25.9375 -48.015625 C -26.96875 -48.015625 -28.140625 -48.578125 -29.453125 -49.703125 C -30.765625 -50.828125 -32.101562 -52.363281 -33.46875 -54.3125 Z M -32.1875 -55.484375 "/></g></g></g><g fill="#d0a933" fill-opacity="1"><g transform="translate(244.357556, 210.025245)"><g/></g></g><g fill="#d0a933" fill-opacity="1"><g transform="translate(256.250435, 210.025245)"><g><path d="M -0.78125 -38.109375 L 28.09375 -38.109375 L 32.53125 -33.6875 L 32.53125 -6.140625 C 32.53125 -5.328125 33.128906 -4.375 34.328125 -3.28125 C 35.523438 -2.195312 36.925781 -1.257812 38.53125 -0.46875 C 40.132812 0.320312 41.488281 0.71875 42.59375 0.71875 C 43.476562 0.71875 44.4375 0.164062 45.46875 -0.9375 L 49.5 1.65625 C 48.46875 2.800781 47.304688 3.375 46.015625 3.375 C 43.910156 3.375 41.429688 2.644531 38.578125 1.1875 C 35.722656 -0.269531 33.242188 -2.003906 31.140625 -4.015625 C 29.035156 -6.023438 27.984375 -7.785156 27.984375 -9.296875 L 27.984375 -33.6875 L 13.71875 -33.6875 C 16.78125 -28.414062 18.3125 -23.617188 18.3125 -19.296875 C 18.3125 -18.046875 17.988281 -16.8125 17.34375 -15.59375 C 16.695312 -14.375 15.859375 -13.378906 14.828125 -12.609375 C 13.796875 -11.835938 12.707031 -11.453125 11.5625 -11.453125 C 9.863281 -11.453125 8.265625 -11.789062 6.765625 -12.46875 C 5.273438 -13.15625 4.078125 -14.050781 3.171875 -15.15625 C 2.273438 -16.257812 1.828125 -17.398438 1.828125 -18.578125 C 1.828125 -19.867188 2.359375 -21.039062 3.421875 -22.09375 C 4.492188 -23.144531 5.65625 -23.671875 6.90625 -23.671875 C 7.945312 -23.671875 8.972656 -23.398438 9.984375 -22.859375 C 10.992188 -22.328125 11.832031 -21.601562 12.5 -20.6875 L 11.671875 -19.796875 C 11.335938 -20.128906 10.992188 -20.390625 10.640625 -20.578125 C 10.296875 -20.765625 10.015625 -20.859375 9.796875 -20.859375 C 9.234375 -20.859375 8.628906 -20.617188 7.984375 -20.140625 C 7.347656 -19.660156 6.816406 -19.054688 6.390625 -18.328125 C 5.960938 -17.609375 5.75 -16.9375 5.75 -16.3125 C 5.75 -15.726562 5.96875 -15.222656 6.40625 -14.796875 C 6.851562 -14.367188 7.375 -14.15625 7.96875 -14.15625 C 9.21875 -14.15625 10.394531 -14.585938 11.5 -15.453125 C 12.613281 -16.328125 13.488281 -17.484375 14.125 -18.921875 C 14.769531 -20.359375 15.09375 -21.882812 15.09375 -23.5 C 15.09375 -26.125 13.914062 -29.519531 11.5625 -33.6875 L -0.78125 -33.6875 Z M 30.640625 -38.109375 L 38.9375 -38.109375 L 38.9375 -33.6875 L 35.015625 -33.6875 Z M 30.640625 -38.109375 "/></g></g></g><g fill="#d0a933" fill-opacity="1"><g transform="translate(294.362955, 210.025245)"><g><path d="M -15.546875 -46.84375 C -15.546875 -47.988281 -15.15625 -49.101562 -14.375 -50.1875 C -13.601562 -51.28125 -12.585938 -52.164062 -11.328125 -52.84375 C -10.078125 -53.53125 -8.789062 -53.875 -7.46875 -53.875 C -5.738281 -53.875 -4.21875 -53.46875 -2.90625 -52.65625 C -1.59375 -51.84375 -0.503906 -50.882812 0.359375 -49.78125 C 1.222656 -48.675781 2.15625 -47.3125 3.15625 -45.6875 C 3.925781 -44.4375 4.53125 -43.53125 4.96875 -42.96875 C 5.414062 -42.414062 5.878906 -42.140625 6.359375 -42.140625 C 6.691406 -42.140625 6.988281 -42.257812 7.25 -42.5 C 7.507812 -42.738281 7.835938 -43.117188 8.234375 -43.640625 L 10.890625 -40.4375 C 10.378906 -39.8125 9.789062 -39.332031 9.125 -39 C 8.457031 -38.664062 7.796875 -38.5 7.140625 -38.5 C 6.285156 -38.5 5.515625 -38.894531 4.828125 -39.6875 C 4.148438 -40.476562 3.296875 -41.738281 2.265625 -43.46875 C 1.015625 -45.570312 -0.113281 -47.175781 -1.125 -48.28125 C -2.144531 -49.394531 -3.394531 -49.953125 -4.875 -49.953125 C -5.90625 -49.953125 -6.9375 -49.679688 -7.96875 -49.140625 C -9 -48.609375 -9.84375 -47.910156 -10.5 -47.046875 C -11.164062 -46.179688 -11.5 -45.269531 -11.5 -44.3125 C -11.5 -43.050781 -10.410156 -41.445312 -8.234375 -39.5 L -9.625 -38.5 C -11.46875 -39.894531 -12.914062 -41.300781 -13.96875 -42.71875 C -15.019531 -44.144531 -15.546875 -45.519531 -15.546875 -46.84375 Z M -0.78125 -38.109375 L 5.75 -38.109375 L 10.171875 -33.6875 L 10.171875 -6.140625 C 10.171875 -5.328125 10.757812 -4.375 11.9375 -3.28125 C 13.125 -2.195312 14.519531 -1.257812 16.125 -0.46875 C 17.726562 0.320312 19.082031 0.71875 20.1875 0.71875 C 20.707031 0.71875 21.234375 0.566406 21.765625 0.265625 C 22.296875 -0.0234375 22.75 -0.425781 23.125 -0.9375 L 27.15625 1.65625 C 26.125 2.800781 24.960938 3.375 23.671875 3.375 C 21.535156 3.375 19.035156 2.632812 16.171875 1.15625 C 13.316406 -0.3125 10.847656 -2.050781 8.765625 -4.0625 C 6.679688 -6.070312 5.640625 -7.816406 5.640625 -9.296875 L 5.640625 -33.6875 L -0.78125 -33.6875 Z M 8.296875 -38.109375 L 16.59375 -38.109375 L 16.59375 -33.6875 L 12.671875 -33.6875 Z M 8.296875 -38.109375 "/></g></g></g><g fill="#d0a933" fill-opacity="1"><g transform="translate(310.183242, 210.025245)"><g><path d="M -0.78125 -38.109375 L 25.9375 -38.109375 L 30.3125 -33.6875 L 30.3125 -6.140625 C 30.3125 -5.328125 30.910156 -4.375 32.109375 -3.28125 C 33.304688 -2.195312 34.707031 -1.257812 36.3125 -0.46875 C 37.914062 0.320312 39.269531 0.71875 40.375 0.71875 C 41.476562 0.71875 42.4375 0.164062 43.25 -0.9375 L 47.34375 1.65625 C 46.28125 2.800781 45.117188 3.375 43.859375 3.375 C 41.753906 3.375 39.265625 2.632812 36.390625 1.15625 C 33.515625 -0.3125 31.023438 -2.050781 28.921875 -4.0625 C 26.828125 -6.070312 25.78125 -7.816406 25.78125 -9.296875 L 25.78125 -19.796875 C 24.664062 -20.910156 23.453125 -21.769531 22.140625 -22.375 C 20.835938 -22.976562 19.613281 -23.28125 18.46875 -23.28125 C 16.375 -23.28125 14.421875 -22.8125 12.609375 -21.875 C 10.804688 -20.9375 9.367188 -19.671875 8.296875 -18.078125 C 7.222656 -16.492188 6.6875 -14.78125 6.6875 -12.9375 C 6.6875 -11.425781 7.191406 -9.738281 8.203125 -7.875 C 9.222656 -6.019531 10.460938 -4.453125 11.921875 -3.171875 C 13.378906 -1.898438 14.753906 -1.265625 16.046875 -1.265625 C 16.410156 -1.265625 16.8125 -1.363281 17.25 -1.5625 C 17.695312 -1.769531 18.101562 -2.078125 18.46875 -2.484375 L 22.015625 0.390625 C 21.679688 0.796875 21.191406 1.097656 20.546875 1.296875 C 19.898438 1.503906 19.191406 1.609375 18.421875 1.609375 C 16.023438 1.609375 13.632812 0.648438 11.25 -1.265625 C 8.875 -3.179688 6.910156 -5.566406 5.359375 -8.421875 C 3.816406 -11.285156 3.046875 -14.03125 3.046875 -16.65625 C 3.046875 -18.53125 3.5625 -20.257812 4.59375 -21.84375 C 5.625 -23.4375 7.015625 -24.691406 8.765625 -25.609375 C 10.515625 -26.535156 12.40625 -27 14.4375 -27 C 16.09375 -27 17.914062 -26.570312 19.90625 -25.71875 C 21.90625 -24.875 23.863281 -23.675781 25.78125 -22.125 L 25.78125 -33.6875 L -0.78125 -33.6875 Z M 28.375 -38.109375 L 36.734375 -38.109375 L 36.734375 -33.6875 L 32.90625 -33.6875 Z M 28.375 -38.109375 "/></g></g></g></svg>