<svg xmlns="http://www.w3.org/2000/svg" xmlns:xlink="http://www.w3.org/1999/xlink" width="1366" zoomAndPan="magnify" viewBox="0 0 1024.5 576" height="768" preserveAspectRatio="xMidYMid meet" version="1.0"><defs><g/></defs><g fill="#ffffff" fill-opacity="1"><g transform="translate(455.270869, 270.48056)"><g><path d="M 4.042969 0 C 7.625 0 9.582031 -1.917969 9.582031 -5.316406 C 9.582031 -8.742188 7.625 -10.671875 4.054688 -10.671875 L 1.019531 -10.671875 L 1.019531 0 Z M 2.671875 -9.191406 L 4.027344 -9.191406 C 6.351562 -9.191406 7.929688 -8.113281 7.929688 -5.316406 C 7.929688 -2.308594 6.210938 -1.484375 4.027344 -1.484375 L 2.671875 -1.484375 Z M 2.671875 -9.191406 "/></g></g></g><g fill="#ffffff" fill-opacity="1"><g transform="translate(466.305783, 270.48056)"><g><path d="M 3.148438 0.152344 C 3.847656 0.152344 4.460938 0.0273438 4.964844 -0.292969 C 5.273438 -0.488281 5.554688 -0.769531 5.777344 -1.148438 L 5.777344 0 L 7.316406 0 L 7.316406 -4.324219 C 7.316406 -5.121094 7.316406 -6.351562 6.460938 -7.148438 C 5.890625 -7.679688 5.035156 -7.945312 4.140625 -7.945312 C 2.617188 -7.945312 1.175781 -7.09375 0.910156 -5.371094 L 2.433594 -5.371094 C 2.601562 -6.183594 3.289062 -6.6875 4.125 -6.6875 C 4.644531 -6.6875 5.0625 -6.519531 5.359375 -6.226562 C 5.636719 -5.929688 5.777344 -5.523438 5.792969 -4.980469 L 3.246094 -4.488281 C 2.519531 -4.351562 1.902344 -4.140625 1.441406 -3.804688 C 0.910156 -3.414062 0.601562 -2.855469 0.601562 -2.113281 C 0.601562 -0.683594 1.636719 0.152344 3.148438 0.152344 Z M 3.457031 -1.117188 C 2.671875 -1.117188 2.140625 -1.496094 2.140625 -2.152344 C 2.140625 -2.449219 2.253906 -2.6875 2.433594 -2.867188 C 2.6875 -3.105469 3.050781 -3.257812 3.609375 -3.371094 L 5.804688 -3.804688 C 5.804688 -2.644531 5.539062 -1.859375 4.574219 -1.371094 C 4.238281 -1.203125 3.875 -1.117188 3.457031 -1.117188 Z M 3.457031 -1.117188 "/></g></g></g><g fill="#ffffff" fill-opacity="1"><g transform="translate(475.298831, 270.48056)"><g><path d="M 2.210938 2.882812 C 3.316406 2.882812 3.859375 2.503906 4.308594 1.230469 L 7.554688 -7.792969 L 5.890625 -7.792969 L 3.972656 -1.902344 L 1.886719 -7.792969 L 0.210938 -7.792969 L 3.160156 -0.0429688 L 2.855469 0.8125 C 2.585938 1.484375 2.335938 1.539062 1.777344 1.539062 L 0.980469 1.539062 L 0.980469 2.882812 Z M 2.210938 2.882812 "/></g></g></g><g fill="#ffffff" fill-opacity="1"><g transform="translate(483.914285, 270.48056)"><g><path d="M 6.140625 -10.671875 L 4.742188 -10.671875 L -0.140625 1.550781 L 1.257812 1.550781 Z M 6.140625 -10.671875 "/></g></g></g><g fill="#ffffff" fill-opacity="1"><g transform="translate(491.229097, 270.48056)"><g><path d="M 2.671875 0 L 2.671875 -8.503906 L 7.261719 0 L 9.332031 0 L 9.332031 -10.671875 L 7.695312 -10.671875 L 7.695312 -2.152344 L 3.105469 -10.671875 L 1.019531 -10.671875 L 1.019531 0 Z M 2.671875 0 "/></g></g></g><g fill="#ffffff" fill-opacity="1"><g transform="translate(502.417846, 270.48056)"><g><path d="M 1.691406 -8.882812 C 2.265625 -8.882812 2.726562 -9.300781 2.726562 -9.863281 C 2.726562 -10.421875 2.265625 -10.839844 1.691406 -10.839844 C 1.132812 -10.839844 0.65625 -10.421875 0.65625 -9.863281 C 0.65625 -9.300781 1.132812 -8.882812 1.691406 -8.882812 Z M 2.460938 0 L 2.460938 -7.792969 L 0.921875 -7.792969 L 0.921875 0 Z M 2.460938 0 "/></g></g></g><g fill="#ffffff" fill-opacity="1"><g transform="translate(506.627903, 270.48056)"><g><path d="M 4.433594 3.019531 C 6.492188 3.019531 8.015625 2.222656 8.015625 -0.390625 L 8.015625 -7.792969 L 6.476562 -7.792969 L 6.476562 -6.699219 C 5.777344 -7.636719 5.089844 -7.945312 4.097656 -7.945312 C 2.027344 -7.945312 0.65625 -6.28125 0.65625 -3.917969 C 0.65625 -1.59375 2.027344 0.0703125 4.097656 0.0703125 C 5.078125 0.0703125 5.761719 -0.222656 6.476562 -1.1875 L 6.476562 -0.0546875 C 6.476562 1.050781 5.875 1.761719 4.421875 1.761719 C 3.316406 1.761719 2.6875 1.371094 2.449219 0.53125 L 0.882812 0.53125 C 1.203125 2.476562 2.855469 3.019531 4.433594 3.019531 Z M 4.378906 -1.273438 C 3.035156 -1.273438 2.195312 -2.421875 2.195312 -3.945312 C 2.195312 -5.457031 3.050781 -6.601562 4.378906 -6.601562 C 5.679688 -6.601562 6.617188 -5.484375 6.617188 -3.945312 C 6.617188 -2.390625 5.691406 -1.273438 4.378906 -1.273438 Z M 4.378906 -1.273438 "/></g></g></g><g fill="#ffffff" fill-opacity="1"><g transform="translate(516.404134, 270.48056)"><g><path d="M 2.476562 0 L 2.476562 -3.652344 C 2.476562 -4.964844 2.644531 -5.664062 3.050781 -6.113281 C 3.34375 -6.449219 3.761719 -6.644531 4.351562 -6.644531 C 4.839844 -6.644531 5.203125 -6.519531 5.441406 -6.253906 C 5.734375 -5.929688 5.859375 -5.414062 5.859375 -4.601562 L 5.859375 0 L 7.398438 0 L 7.398438 -4.589844 C 7.398438 -5.230469 7.398438 -5.988281 7.050781 -6.6875 C 6.6875 -7.398438 6.015625 -7.945312 4.6875 -7.945312 C 3.847656 -7.945312 3.175781 -7.636719 2.476562 -6.699219 L 2.476562 -10.671875 L 0.9375 -10.671875 L 0.9375 0 Z M 2.476562 0 "/></g></g></g><g fill="#ffffff" fill-opacity="1"><g transform="translate(525.495083, 270.48056)"><g><path d="M 4.699219 0 L 4.699219 -1.300781 L 3.875 -1.300781 C 3.148438 -1.300781 3.089844 -1.691406 3.089844 -2.238281 L 3.089844 -6.503906 L 4.714844 -6.503906 L 4.714844 -7.792969 L 3.089844 -7.792969 L 3.089844 -10.671875 L 1.550781 -10.671875 L 1.550781 -7.792969 L 0.351562 -7.792969 L 0.351562 -6.503906 L 1.550781 -6.503906 L 1.550781 -1.832031 C 1.550781 -0.449219 2.222656 0 3.386719 0 Z M 4.699219 0 "/></g></g></g><g fill="#ffffff" fill-opacity="1"><g transform="translate(531.523234, 270.48056)"><g/></g></g><g fill="#ffffff" fill-opacity="1"><g transform="translate(536.180824, 270.48056)"><g><path d="M 4.699219 0 L 4.699219 -1.300781 L 3.875 -1.300781 C 3.148438 -1.300781 3.089844 -1.691406 3.089844 -2.238281 L 3.089844 -6.503906 L 4.714844 -6.503906 L 4.714844 -7.792969 L 3.089844 -7.792969 L 3.089844 -10.671875 L 1.550781 -10.671875 L 1.550781 -7.792969 L 0.351562 -7.792969 L 0.351562 -6.503906 L 1.550781 -6.503906 L 1.550781 -1.832031 C 1.550781 -0.449219 2.222656 0 3.386719 0 Z M 4.699219 0 "/></g></g></g><g fill="#ffffff" fill-opacity="1"><g transform="translate(542.208975, 270.48056)"><g><path d="M 1.691406 -8.882812 C 2.265625 -8.882812 2.726562 -9.300781 2.726562 -9.863281 C 2.726562 -10.421875 2.265625 -10.839844 1.691406 -10.839844 C 1.132812 -10.839844 0.65625 -10.421875 0.65625 -9.863281 C 0.65625 -9.300781 1.132812 -8.882812 1.691406 -8.882812 Z M 2.460938 0 L 2.460938 -7.792969 L 0.921875 -7.792969 L 0.921875 0 Z M 2.460938 0 "/></g></g></g><g fill="#ffffff" fill-opacity="1"><g transform="translate(546.419032, 270.48056)"><g><path d="M 2.460938 0 L 2.460938 -3.820312 C 2.460938 -5.0625 2.65625 -5.722656 3.050781 -6.15625 C 3.300781 -6.460938 3.691406 -6.644531 4.140625 -6.644531 C 5.023438 -6.644531 5.566406 -6.015625 5.566406 -4.839844 L 5.566406 0 L 7.09375 0 L 7.09375 -3.820312 C 7.09375 -4.9375 7.230469 -5.691406 7.695312 -6.195312 C 7.945312 -6.460938 8.308594 -6.644531 8.796875 -6.644531 C 9.679688 -6.644531 10.199219 -6.042969 10.199219 -4.839844 L 10.199219 0 L 11.734375 0 L 11.734375 -5.089844 C 11.734375 -6.867188 10.910156 -7.945312 9.148438 -7.945312 C 8.167969 -7.945312 7.316406 -7.59375 6.785156 -6.601562 C 6.53125 -7.496094 5.691406 -7.945312 4.671875 -7.945312 C 3.859375 -7.945312 3.160156 -7.625 2.460938 -6.699219 L 2.460938 -7.792969 L 0.921875 -7.792969 L 0.921875 0 Z M 2.460938 0 "/></g></g></g><g fill="#ffffff" fill-opacity="1"><g transform="translate(559.845446, 270.48056)"><g><path d="M 4.476562 0.152344 C 6.492188 0.152344 7.679688 -1.078125 8.15625 -2.558594 L 6.546875 -2.558594 C 6.253906 -1.820312 5.539062 -1.1875 4.503906 -1.1875 C 3.554688 -1.1875 2.769531 -1.789062 2.390625 -2.742188 C 2.28125 -2.980469 2.195312 -3.300781 2.167969 -3.582031 L 8.28125 -3.582031 L 8.28125 -4 C 8.28125 -6.660156 6.421875 -7.945312 4.433594 -7.945312 C 1.902344 -7.945312 0.601562 -5.929688 0.601562 -3.859375 C 0.601562 -1.566406 2.167969 0.152344 4.476562 0.152344 Z M 2.265625 -4.824219 C 2.308594 -5.035156 2.378906 -5.316406 2.53125 -5.566406 C 2.921875 -6.28125 3.621094 -6.671875 4.488281 -6.671875 C 5.316406 -6.671875 6.070312 -6.292969 6.449219 -5.566406 C 6.589844 -5.328125 6.660156 -5.050781 6.6875 -4.824219 Z M 2.265625 -4.824219 "/></g></g></g><g fill="#ffffff" fill-opacity="1"><g transform="translate(436.096634, 439.090311)"><g><path d="M 5.457031 0 L 7.652344 -8.421875 L 9.832031 0 L 12.070312 0 L 15.050781 -10.671875 L 13.316406 -10.671875 L 10.910156 -1.820312 L 8.589844 -10.671875 L 6.699219 -10.671875 L 4.390625 -1.832031 L 1.972656 -10.671875 L 0.238281 -10.671875 L 3.21875 0 Z M 5.457031 0 "/></g></g></g><g fill="#ffffff" fill-opacity="1"><g transform="translate(452.208233, 439.090311)"><g><path d="M 3.148438 0.152344 C 3.847656 0.152344 4.460938 0.0273438 4.964844 -0.292969 C 5.273438 -0.488281 5.554688 -0.769531 5.777344 -1.148438 L 5.777344 0 L 7.316406 0 L 7.316406 -4.324219 C 7.316406 -5.121094 7.316406 -6.351562 6.460938 -7.148438 C 5.890625 -7.679688 5.035156 -7.945312 4.140625 -7.945312 C 2.617188 -7.945312 1.175781 -7.09375 0.910156 -5.371094 L 2.433594 -5.371094 C 2.601562 -6.183594 3.289062 -6.6875 4.125 -6.6875 C 4.644531 -6.6875 5.0625 -6.519531 5.359375 -6.226562 C 5.636719 -5.929688 5.777344 -5.523438 5.792969 -4.980469 L 3.246094 -4.488281 C 2.519531 -4.351562 1.902344 -4.140625 1.441406 -3.804688 C 0.910156 -3.414062 0.601562 -2.855469 0.601562 -2.113281 C 0.601562 -0.683594 1.636719 0.152344 3.148438 0.152344 Z M 3.457031 -1.117188 C 2.671875 -1.117188 2.140625 -1.496094 2.140625 -2.152344 C 2.140625 -2.449219 2.253906 -2.6875 2.433594 -2.867188 C 2.6875 -3.105469 3.050781 -3.257812 3.609375 -3.371094 L 5.804688 -3.804688 C 5.804688 -2.644531 5.539062 -1.859375 4.574219 -1.371094 C 4.238281 -1.203125 3.875 -1.117188 3.457031 -1.117188 Z M 3.457031 -1.117188 "/></g></g></g><g fill="#ffffff" fill-opacity="1"><g transform="translate(461.201281, 439.090311)"><g><path d="M 4.183594 0.152344 C 6.140625 0.152344 7.289062 -0.824219 7.289062 -2.292969 C 7.289062 -4.070312 5.664062 -4.378906 4.28125 -4.644531 C 3.273438 -4.839844 2.363281 -5.007812 2.363281 -5.75 C 2.363281 -6.324219 2.894531 -6.6875 3.789062 -6.6875 C 4.6875 -6.6875 5.398438 -6.292969 5.636719 -5.386719 L 7.078125 -5.386719 C 6.796875 -6.992188 5.539062 -7.945312 3.789062 -7.945312 C 2.183594 -7.945312 0.867188 -7.203125 0.867188 -5.664062 C 0.867188 -3.988281 2.390625 -3.679688 3.75 -3.414062 C 4.796875 -3.203125 5.761719 -2.992188 5.761719 -2.167969 C 5.761719 -1.484375 5.105469 -1.117188 4.183594 -1.117188 C 3.007812 -1.117188 2.320312 -1.664062 2.097656 -2.558594 L 0.546875 -2.558594 C 0.8125 -0.769531 2.292969 0.152344 4.183594 0.152344 Z M 4.183594 0.152344 "/></g></g></g><g fill="#ffffff" fill-opacity="1"><g transform="translate(469.942592, 439.090311)"><g><path d="M 4.699219 0 L 4.699219 -1.300781 L 3.875 -1.300781 C 3.148438 -1.300781 3.089844 -1.691406 3.089844 -2.238281 L 3.089844 -6.503906 L 4.714844 -6.503906 L 4.714844 -7.792969 L 3.089844 -7.792969 L 3.089844 -10.671875 L 1.550781 -10.671875 L 1.550781 -7.792969 L 0.351562 -7.792969 L 0.351562 -6.503906 L 1.550781 -6.503906 L 1.550781 -1.832031 C 1.550781 -0.449219 2.222656 0 3.386719 0 Z M 4.699219 0 "/></g></g></g><g fill="#ffffff" fill-opacity="1"><g transform="translate(475.970744, 439.090311)"><g><path d="M 4.476562 0.152344 C 6.492188 0.152344 7.679688 -1.078125 8.15625 -2.558594 L 6.546875 -2.558594 C 6.253906 -1.820312 5.539062 -1.1875 4.503906 -1.1875 C 3.554688 -1.1875 2.769531 -1.789062 2.390625 -2.742188 C 2.28125 -2.980469 2.195312 -3.300781 2.167969 -3.582031 L 8.28125 -3.582031 L 8.28125 -4 C 8.28125 -6.660156 6.421875 -7.945312 4.433594 -7.945312 C 1.902344 -7.945312 0.601562 -5.929688 0.601562 -3.859375 C 0.601562 -1.566406 2.167969 0.152344 4.476562 0.152344 Z M 2.265625 -4.824219 C 2.308594 -5.035156 2.378906 -5.316406 2.53125 -5.566406 C 2.921875 -6.28125 3.621094 -6.671875 4.488281 -6.671875 C 5.316406 -6.671875 6.070312 -6.292969 6.449219 -5.566406 C 6.589844 -5.328125 6.660156 -5.050781 6.6875 -4.824219 Z M 2.265625 -4.824219 "/></g></g></g><g fill="#ffffff" fill-opacity="1"><g transform="translate(485.677051, 439.090311)"><g/></g></g><g fill="#ffffff" fill-opacity="1"><g transform="translate(490.33464, 439.090311)"><g><path d="M 2.671875 0 L 2.671875 -9.46875 L 5.582031 0 L 7.203125 0 L 10.097656 -9.539062 L 10.097656 0 L 11.75 0 L 11.75 -10.671875 L 8.925781 -10.671875 L 6.378906 -2.015625 L 3.847656 -10.671875 L 1.019531 -10.671875 L 1.019531 0 Z M 2.671875 0 "/></g></g></g><g fill="#ffffff" fill-opacity="1"><g transform="translate(503.942862, 439.090311)"><g><path d="M 3.148438 0.152344 C 3.847656 0.152344 4.460938 0.0273438 4.964844 -0.292969 C 5.273438 -0.488281 5.554688 -0.769531 5.777344 -1.148438 L 5.777344 0 L 7.316406 0 L 7.316406 -4.324219 C 7.316406 -5.121094 7.316406 -6.351562 6.460938 -7.148438 C 5.890625 -7.679688 5.035156 -7.945312 4.140625 -7.945312 C 2.617188 -7.945312 1.175781 -7.09375 0.910156 -5.371094 L 2.433594 -5.371094 C 2.601562 -6.183594 3.289062 -6.6875 4.125 -6.6875 C 4.644531 -6.6875 5.0625 -6.519531 5.359375 -6.226562 C 5.636719 -5.929688 5.777344 -5.523438 5.792969 -4.980469 L 3.246094 -4.488281 C 2.519531 -4.351562 1.902344 -4.140625 1.441406 -3.804688 C 0.910156 -3.414062 0.601562 -2.855469 0.601562 -2.113281 C 0.601562 -0.683594 1.636719 0.152344 3.148438 0.152344 Z M 3.457031 -1.117188 C 2.671875 -1.117188 2.140625 -1.496094 2.140625 -2.152344 C 2.140625 -2.449219 2.253906 -2.6875 2.433594 -2.867188 C 2.6875 -3.105469 3.050781 -3.257812 3.609375 -3.371094 L 5.804688 -3.804688 C 5.804688 -2.644531 5.539062 -1.859375 4.574219 -1.371094 C 4.238281 -1.203125 3.875 -1.117188 3.457031 -1.117188 Z M 3.457031 -1.117188 "/></g></g></g><g fill="#ffffff" fill-opacity="1"><g transform="translate(512.935909, 439.090311)"><g><path d="M 2.460938 0 L 2.460938 -3.652344 C 2.460938 -4.964844 2.628906 -5.664062 3.035156 -6.113281 C 3.328125 -6.449219 3.761719 -6.644531 4.351562 -6.644531 C 4.839844 -6.644531 5.191406 -6.519531 5.441406 -6.253906 C 5.722656 -5.929688 5.847656 -5.414062 5.847656 -4.601562 L 5.847656 0 L 7.386719 0 L 7.386719 -4.589844 C 7.386719 -5.230469 7.386719 -5.988281 7.035156 -6.6875 C 6.6875 -7.398438 6 -7.945312 4.671875 -7.945312 C 3.832031 -7.945312 3.175781 -7.636719 2.460938 -6.699219 L 2.460938 -7.792969 L 0.921875 -7.792969 L 0.921875 0 Z M 2.460938 0 "/></g></g></g><g fill="#ffffff" fill-opacity="1"><g transform="translate(522.012869, 439.090311)"><g><path d="M 3.148438 0.152344 C 3.847656 0.152344 4.460938 0.0273438 4.964844 -0.292969 C 5.273438 -0.488281 5.554688 -0.769531 5.777344 -1.148438 L 5.777344 0 L 7.316406 0 L 7.316406 -4.324219 C 7.316406 -5.121094 7.316406 -6.351562 6.460938 -7.148438 C 5.890625 -7.679688 5.035156 -7.945312 4.140625 -7.945312 C 2.617188 -7.945312 1.175781 -7.09375 0.910156 -5.371094 L 2.433594 -5.371094 C 2.601562 -6.183594 3.289062 -6.6875 4.125 -6.6875 C 4.644531 -6.6875 5.0625 -6.519531 5.359375 -6.226562 C 5.636719 -5.929688 5.777344 -5.523438 5.792969 -4.980469 L 3.246094 -4.488281 C 2.519531 -4.351562 1.902344 -4.140625 1.441406 -3.804688 C 0.910156 -3.414062 0.601562 -2.855469 0.601562 -2.113281 C 0.601562 -0.683594 1.636719 0.152344 3.148438 0.152344 Z M 3.457031 -1.117188 C 2.671875 -1.117188 2.140625 -1.496094 2.140625 -2.152344 C 2.140625 -2.449219 2.253906 -2.6875 2.433594 -2.867188 C 2.6875 -3.105469 3.050781 -3.257812 3.609375 -3.371094 L 5.804688 -3.804688 C 5.804688 -2.644531 5.539062 -1.859375 4.574219 -1.371094 C 4.238281 -1.203125 3.875 -1.117188 3.457031 -1.117188 Z M 3.457031 -1.117188 "/></g></g></g><g fill="#ffffff" fill-opacity="1"><g transform="translate(531.005916, 439.090311)"><g><path d="M 4.433594 3.019531 C 6.492188 3.019531 8.015625 2.222656 8.015625 -0.390625 L 8.015625 -7.792969 L 6.476562 -7.792969 L 6.476562 -6.699219 C 5.777344 -7.636719 5.089844 -7.945312 4.097656 -7.945312 C 2.027344 -7.945312 0.65625 -6.28125 0.65625 -3.917969 C 0.65625 -1.59375 2.027344 0.0703125 4.097656 0.0703125 C 5.078125 0.0703125 5.761719 -0.222656 6.476562 -1.1875 L 6.476562 -0.0546875 C 6.476562 1.050781 5.875 1.761719 4.421875 1.761719 C 3.316406 1.761719 2.6875 1.371094 2.449219 0.53125 L 0.882812 0.53125 C 1.203125 2.476562 2.855469 3.019531 4.433594 3.019531 Z M 4.378906 -1.273438 C 3.035156 -1.273438 2.195312 -2.421875 2.195312 -3.945312 C 2.195312 -5.457031 3.050781 -6.601562 4.378906 -6.601562 C 5.679688 -6.601562 6.617188 -5.484375 6.617188 -3.945312 C 6.617188 -2.390625 5.691406 -1.273438 4.378906 -1.273438 Z M 4.378906 -1.273438 "/></g></g></g><g fill="#ffffff" fill-opacity="1"><g transform="translate(540.782152, 439.090311)"><g><path d="M 4.476562 0.152344 C 6.492188 0.152344 7.679688 -1.078125 8.15625 -2.558594 L 6.546875 -2.558594 C 6.253906 -1.820312 5.539062 -1.1875 4.503906 -1.1875 C 3.554688 -1.1875 2.769531 -1.789062 2.390625 -2.742188 C 2.28125 -2.980469 2.195312 -3.300781 2.167969 -3.582031 L 8.28125 -3.582031 L 8.28125 -4 C 8.28125 -6.660156 6.421875 -7.945312 4.433594 -7.945312 C 1.902344 -7.945312 0.601562 -5.929688 0.601562 -3.859375 C 0.601562 -1.566406 2.167969 0.152344 4.476562 0.152344 Z M 2.265625 -4.824219 C 2.308594 -5.035156 2.378906 -5.316406 2.53125 -5.566406 C 2.921875 -6.28125 3.621094 -6.671875 4.488281 -6.671875 C 5.316406 -6.671875 6.070312 -6.292969 6.449219 -5.566406 C 6.589844 -5.328125 6.660156 -5.050781 6.6875 -4.824219 Z M 2.265625 -4.824219 "/></g></g></g><g fill="#ffffff" fill-opacity="1"><g transform="translate(550.488459, 439.090311)"><g><path d="M 2.460938 0 L 2.460938 -3.820312 C 2.460938 -5.0625 2.65625 -5.722656 3.050781 -6.15625 C 3.300781 -6.460938 3.691406 -6.644531 4.140625 -6.644531 C 5.023438 -6.644531 5.566406 -6.015625 5.566406 -4.839844 L 5.566406 0 L 7.09375 0 L 7.09375 -3.820312 C 7.09375 -4.9375 7.230469 -5.691406 7.695312 -6.195312 C 7.945312 -6.460938 8.308594 -6.644531 8.796875 -6.644531 C 9.679688 -6.644531 10.199219 -6.042969 10.199219 -4.839844 L 10.199219 0 L 11.734375 0 L 11.734375 -5.089844 C 11.734375 -6.867188 10.910156 -7.945312 9.148438 -7.945312 C 8.167969 -7.945312 7.316406 -7.59375 6.785156 -6.601562 C 6.53125 -7.496094 5.691406 -7.945312 4.671875 -7.945312 C 3.859375 -7.945312 3.160156 -7.625 2.460938 -6.699219 L 2.460938 -7.792969 L 0.921875 -7.792969 L 0.921875 0 Z M 2.460938 0 "/></g></g></g><g fill="#ffffff" fill-opacity="1"><g transform="translate(563.914866, 439.090311)"><g><path d="M 4.476562 0.152344 C 6.492188 0.152344 7.679688 -1.078125 8.15625 -2.558594 L 6.546875 -2.558594 C 6.253906 -1.820312 5.539062 -1.1875 4.503906 -1.1875 C 3.554688 -1.1875 2.769531 -1.789062 2.390625 -2.742188 C 2.28125 -2.980469 2.195312 -3.300781 2.167969 -3.582031 L 8.28125 -3.582031 L 8.28125 -4 C 8.28125 -6.660156 6.421875 -7.945312 4.433594 -7.945312 C 1.902344 -7.945312 0.601562 -5.929688 0.601562 -3.859375 C 0.601562 -1.566406 2.167969 0.152344 4.476562 0.152344 Z M 2.265625 -4.824219 C 2.308594 -5.035156 2.378906 -5.316406 2.53125 -5.566406 C 2.921875 -6.28125 3.621094 -6.671875 4.488281 -6.671875 C 5.316406 -6.671875 6.070312 -6.292969 6.449219 -5.566406 C 6.589844 -5.328125 6.660156 -5.050781 6.6875 -4.824219 Z M 2.265625 -4.824219 "/></g></g></g><g fill="#ffffff" fill-opacity="1"><g transform="translate(573.621173, 439.090311)"><g><path d="M 2.460938 0 L 2.460938 -3.652344 C 2.460938 -4.964844 2.628906 -5.664062 3.035156 -6.113281 C 3.328125 -6.449219 3.761719 -6.644531 4.351562 -6.644531 C 4.839844 -6.644531 5.191406 -6.519531 5.441406 -6.253906 C 5.722656 -5.929688 5.847656 -5.414062 5.847656 -4.601562 L 5.847656 0 L 7.386719 0 L 7.386719 -4.589844 C 7.386719 -5.230469 7.386719 -5.988281 7.035156 -6.6875 C 6.6875 -7.398438 6 -7.945312 4.671875 -7.945312 C 3.832031 -7.945312 3.175781 -7.636719 2.460938 -6.699219 L 2.460938 -7.792969 L 0.921875 -7.792969 L 0.921875 0 Z M 2.460938 0 "/></g></g></g><g fill="#ffffff" fill-opacity="1"><g transform="translate(582.698133, 439.090311)"><g><path d="M 4.699219 0 L 4.699219 -1.300781 L 3.875 -1.300781 C 3.148438 -1.300781 3.089844 -1.691406 3.089844 -2.238281 L 3.089844 -6.503906 L 4.714844 -6.503906 L 4.714844 -7.792969 L 3.089844 -7.792969 L 3.089844 -10.671875 L 1.550781 -10.671875 L 1.550781 -7.792969 L 0.351562 -7.792969 L 0.351562 -6.503906 L 1.550781 -6.503906 L 1.550781 -1.832031 C 1.550781 -0.449219 2.222656 0 3.386719 0 Z M 4.699219 0 "/></g></g></g><g fill="#d0a933" fill-opacity="1"><g transform="translate(167.872756, 326.231348)"><g><path d="M 0.84375 -103.625 C 0.84375 -106.5 1.71875 -109.234375 3.46875 -111.828125 C 5.226562 -114.429688 7.628906 -116.515625 10.671875 -118.078125 C 13.710938 -119.640625 17.113281 -120.421875 20.875 -120.421875 C 26.625 -120.421875 31.9375 -119.359375 36.8125 -117.234375 C 41.695312 -115.117188 45.878906 -112.640625 49.359375 -109.796875 C 52.835938 -106.960938 56.570312 -103.503906 60.5625 -99.421875 C 63.445312 -96.546875 65.664062 -94.488281 67.21875 -93.25 C 68.78125 -92.007812 70.203125 -91.390625 71.484375 -91.390625 C 72.441406 -91.390625 73.421875 -91.726562 74.421875 -92.40625 C 75.421875 -93.09375 76.28125 -93.992188 77 -95.109375 L 83.59375 -88.75 C 82.238281 -87.15625 80.757812 -85.875 79.15625 -84.90625 C 77.5625 -83.945312 76.082031 -83.46875 74.71875 -83.46875 C 72.476562 -83.46875 70.28125 -84.328125 68.125 -86.046875 C 65.96875 -87.773438 63.207031 -90.4375 59.84375 -94.03125 C 56.332031 -97.789062 53.21875 -100.847656 50.5 -103.203125 C 47.78125 -105.566406 44.597656 -107.609375 40.953125 -109.328125 C 37.316406 -111.046875 33.34375 -111.90625 29.03125 -111.90625 C 22.875 -111.90625 18.113281 -110.484375 14.75 -107.640625 C 11.394531 -104.804688 9.71875 -101.347656 9.71875 -97.265625 C 9.71875 -94.867188 10.335938 -92.410156 11.578125 -89.890625 C 12.816406 -87.367188 14.675781 -84.953125 17.15625 -82.640625 L 13.1875 -82.640625 C 9.351562 -85.671875 6.335938 -89.023438 4.140625 -92.703125 C 1.941406 -96.390625 0.84375 -100.03125 0.84375 -103.625 Z M -1.671875 -82.640625 L 12.46875 -82.640625 L 22.0625 -73.046875 L 22.0625 -13.3125 C 22.0625 -11.550781 23.34375 -9.488281 25.90625 -7.125 C 28.46875 -4.769531 31.484375 -2.734375 34.953125 -1.015625 C 38.429688 0.703125 41.375 1.5625 43.78125 1.5625 C 44.894531 1.5625 46.03125 1.238281 47.1875 0.59375 C 48.351562 -0.0390625 49.335938 -0.914062 50.140625 -2.03125 L 58.890625 3.59375 C 56.648438 6.070312 54.128906 7.3125 51.328125 7.3125 C 46.691406 7.3125 41.273438 5.710938 35.078125 2.515625 C 28.878906 -0.679688 23.519531 -4.457031 19 -8.8125 C 14.488281 -13.175781 12.234375 -16.957031 12.234375 -20.15625 L 12.234375 -73.046875 L -1.671875 -73.046875 Z M 17.984375 -82.640625 L 35.984375 -82.640625 L 35.984375 -73.046875 L 27.46875 -73.046875 Z M 17.984375 -82.640625 "/></g></g></g><g fill="#d0a933" fill-opacity="1"><g transform="translate(202.176032, 326.231348)"><g><path d="M 108.78125 3.59375 C 106.539062 6.070312 104.023438 7.3125 101.234375 7.3125 C 96.585938 7.3125 91.144531 5.710938 84.90625 2.515625 C 78.675781 -0.679688 73.300781 -4.457031 68.78125 -8.8125 C 64.257812 -13.175781 62 -16.957031 62 -20.15625 L 62 -37.0625 C 59.6875 -36.414062 57.570312 -36.09375 55.65625 -36.09375 C 50.695312 -36.09375 45.5 -37.972656 40.0625 -41.734375 C 37.820312 -38.617188 35.082031 -36.320312 31.84375 -34.84375 C 28.601562 -33.363281 25.101562 -32.625 21.34375 -32.625 C 19.988281 -32.625 18.953125 -32.664062 18.234375 -32.75 C 24.785156 -23.382812 30.921875 -16.0625 36.640625 -10.78125 C 42.359375 -5.507812 47.054688 -2.875 50.734375 -2.875 C 52.648438 -2.875 54.53125 -4.113281 56.375 -6.59375 L 64.40625 -0.125 C 63.289062 1.15625 61.851562 2.175781 60.09375 2.9375 C 58.332031 3.695312 56.53125 4.078125 54.6875 4.078125 C 49.96875 4.078125 43.609375 0.519531 35.609375 -6.59375 C 27.617188 -13.707031 20.484375 -21.78125 14.203125 -30.8125 C 7.929688 -39.851562 4.796875 -46.8125 4.796875 -51.6875 C 4.796875 -54.09375 5.875 -56.09375 8.03125 -57.6875 C 10.195312 -59.289062 12.675781 -60.09375 15.46875 -60.09375 C 18.269531 -60.09375 21.007812 -58.832031 23.6875 -56.3125 C 26.363281 -53.789062 28.460938 -50.453125 29.984375 -46.296875 C 31.742188 -47.335938 33.125 -48.71875 34.125 -50.4375 C 35.125 -52.15625 35.625 -54.015625 35.625 -56.015625 C 35.625 -58.804688 34.898438 -61.703125 33.453125 -64.703125 C 32.015625 -67.703125 30.019531 -70.484375 27.46875 -73.046875 L -1.671875 -73.046875 L -1.671875 -82.640625 L 24.59375 -82.640625 L 33.46875 -73.046875 C 36.1875 -70.085938 38.441406 -66.664062 40.234375 -62.78125 C 42.035156 -58.90625 42.976562 -55.207031 43.0625 -51.6875 C 43.0625 -49.6875 42.660156 -47.570312 41.859375 -45.34375 C 44.097656 -43.894531 46.816406 -43.171875 50.015625 -43.171875 C 54.015625 -43.171875 58.007812 -44.132812 62 -46.0625 L 62 -73.046875 L 38.984375 -73.046875 L 30.109375 -82.640625 L 62.25 -82.640625 L 71.96875 -73.046875 L 71.96875 -13.3125 C 71.96875 -11.550781 73.242188 -9.488281 75.796875 -7.125 C 78.359375 -4.769531 81.378906 -2.734375 84.859375 -1.015625 C 88.335938 0.703125 91.273438 1.5625 93.671875 1.5625 C 95.992188 1.5625 98.113281 0.363281 100.03125 -2.03125 Z M 77.359375 -73.046875 L 67.765625 -82.640625 L 85.75 -82.640625 L 85.75 -73.046875 Z M 15.46875 -41.5 C 19.625 -41.5 23.503906 -42.457031 27.109375 -44.375 C 26.460938 -46.375 25.320312 -48.09375 23.6875 -49.53125 C 22.050781 -50.96875 20.390625 -51.6875 18.703125 -51.6875 C 16.953125 -51.6875 15.335938 -51.1875 13.859375 -50.1875 C 12.378906 -49.1875 11.640625 -48.050781 11.640625 -46.78125 C 11.640625 -45.414062 12.015625 -44.191406 12.765625 -43.109375 C 13.523438 -42.035156 14.425781 -41.5 15.46875 -41.5 Z M 15.46875 -41.5 "/></g></g></g><g fill="#d0a933" fill-opacity="1"><g transform="translate(286.374975, 326.231348)"><g><path d="M 25.78125 -73.046875 C 29.539062 -67.203125 31.421875 -62.285156 31.421875 -58.296875 C 31.421875 -54.210938 29.539062 -50.929688 25.78125 -48.453125 C 22.03125 -45.972656 17.113281 -44.734375 11.03125 -44.734375 C 12.3125 -40.972656 14.488281 -37.875 17.5625 -35.4375 C 20.644531 -33 24.023438 -31.78125 27.703125 -31.78125 C 32.179688 -31.78125 36.5 -32.921875 40.65625 -35.203125 C 44.8125 -37.484375 48.332031 -40.582031 51.21875 -44.5 L 51.21875 -31.546875 C 48.65625 -29.066406 45.914062 -27.164062 43 -25.84375 C 40.082031 -24.53125 37.144531 -23.875 34.1875 -23.875 C 29.539062 -23.875 25.117188 -25.171875 20.921875 -27.765625 C 16.722656 -30.359375 13.101562 -33.914062 10.0625 -38.4375 C 7.03125 -42.957031 4.875 -48.054688 3.59375 -53.734375 L 5.15625 -54.8125 C 6.4375 -54.488281 8.4375 -54.328125 11.15625 -54.328125 C 13.394531 -54.328125 15.613281 -54.785156 17.8125 -55.703125 C 20.007812 -56.628906 21.804688 -57.847656 23.203125 -59.359375 C 24.609375 -60.878906 25.3125 -62.441406 25.3125 -64.046875 C 25.3125 -67.085938 23.832031 -70.085938 20.875 -73.046875 L -1.671875 -73.046875 L -1.671875 -82.640625 L 16.1875 -82.640625 Z M 49.53125 -73.046875 L 31.1875 -73.046875 L 21.703125 -82.640625 L 49.53125 -82.640625 Z M 49.53125 -73.046875 "/></g></g></g><g fill="#d0a933" fill-opacity="1"><g transform="translate(334.231637, 326.231348)"><g><path d="M 61.046875 -73.046875 L 61.046875 -13.3125 C 61.046875 -11.550781 62.34375 -9.488281 64.9375 -7.125 C 67.539062 -4.769531 70.582031 -2.734375 74.0625 -1.015625 C 77.539062 0.703125 80.476562 1.5625 82.875 1.5625 C 85.195312 1.5625 87.316406 0.363281 89.234375 -2.03125 L 97.984375 3.59375 C 95.671875 6.070312 93.15625 7.3125 90.4375 7.3125 C 85.789062 7.3125 80.347656 5.734375 74.109375 2.578125 C 67.878906 -0.578125 62.503906 -4.332031 57.984375 -8.6875 C 53.472656 -13.050781 51.21875 -16.789062 51.21875 -19.90625 L 51.21875 -31.0625 C 48.8125 -28.738281 46.128906 -26.957031 43.171875 -25.71875 C 40.210938 -24.488281 37.21875 -23.875 34.1875 -23.875 C 29.382812 -23.875 24.820312 -25.226562 20.5 -27.9375 C 16.1875 -30.65625 12.53125 -34.332031 9.53125 -38.96875 C 6.53125 -43.613281 4.515625 -48.734375 3.484375 -54.328125 L 4.921875 -55.40625 C 6.679688 -54.53125 8.679688 -54.09375 10.921875 -54.09375 C 14.753906 -54.09375 18.109375 -55.070312 20.984375 -57.03125 C 23.867188 -58.988281 25.3125 -61.566406 25.3125 -64.765625 C 25.3125 -67.003906 24.671875 -68.941406 23.390625 -70.578125 C 22.109375 -72.222656 20.347656 -73.046875 18.109375 -73.046875 L -1.671875 -73.046875 L -1.671875 -82.640625 L 16.1875 -82.640625 L 25.78125 -73.046875 C 27.78125 -70.960938 29.21875 -68.617188 30.09375 -66.015625 C 30.976562 -63.421875 31.421875 -60.847656 31.421875 -58.296875 C 31.421875 -54.210938 29.582031 -50.929688 25.90625 -48.453125 C 22.226562 -45.972656 17.269531 -44.734375 11.03125 -44.734375 C 12.3125 -40.972656 14.488281 -37.875 17.5625 -35.4375 C 20.644531 -33 24.023438 -31.78125 27.703125 -31.78125 C 32.179688 -31.78125 36.5 -32.921875 40.65625 -35.203125 C 44.8125 -37.484375 48.332031 -40.582031 51.21875 -44.5 L 51.21875 -73.046875 L 31.1875 -73.046875 L 21.703125 -82.640625 L 51.453125 -82.640625 Z M 74.953125 -73.046875 L 66.5625 -73.046875 L 57.09375 -82.640625 L 74.953125 -82.640625 Z M 74.953125 -73.046875 "/></g></g></g><g fill="#d0a933" fill-opacity="1"><g transform="translate(407.515922, 326.231348)"><g><path d="M -1.671875 -82.640625 L 12.46875 -82.640625 L 22.0625 -73.046875 L 22.0625 -13.3125 C 22.0625 -11.550781 23.34375 -9.488281 25.90625 -7.125 C 28.46875 -4.769531 31.484375 -2.734375 34.953125 -1.015625 C 38.429688 0.703125 41.375 1.5625 43.78125 1.5625 C 44.894531 1.5625 46.03125 1.238281 47.1875 0.59375 C 48.351562 -0.0390625 49.335938 -0.914062 50.140625 -2.03125 L 58.890625 3.59375 C 56.648438 6.070312 54.128906 7.3125 51.328125 7.3125 C 46.691406 7.3125 41.273438 5.710938 35.078125 2.515625 C 28.878906 -0.679688 23.519531 -4.457031 19 -8.8125 C 14.488281 -13.175781 12.234375 -16.957031 12.234375 -20.15625 L 12.234375 -73.046875 L -1.671875 -73.046875 Z M 17.984375 -82.640625 L 35.984375 -82.640625 L 35.984375 -73.046875 L 27.46875 -73.046875 Z M -35.96875 -120.296875 C -34.9375 -118.378906 -33.738281 -116.835938 -32.375 -115.671875 C -31.019531 -114.515625 -29.742188 -113.9375 -28.546875 -113.9375 C -27.421875 -113.9375 -26.359375 -114.113281 -25.359375 -114.46875 C -24.359375 -114.832031 -23.140625 -115.335938 -21.703125 -115.984375 C -19.304688 -117.179688 -17.425781 -117.78125 -16.0625 -117.78125 C -14.46875 -117.78125 -12.628906 -117.019531 -10.546875 -115.5 C -8.472656 -113.976562 -6.316406 -111.859375 -4.078125 -109.140625 L 17.515625 -82.640625 L 12.953125 -82.640625 L -1.078125 -98.828125 C -5.554688 -104.347656 -8.992188 -107.109375 -11.390625 -107.109375 C -12.503906 -107.109375 -14.382812 -106.585938 -17.03125 -105.546875 C -19.90625 -104.585938 -21.703125 -104.109375 -22.421875 -104.109375 C -24.660156 -104.109375 -27.195312 -105.328125 -30.03125 -107.765625 C -32.875 -110.203125 -35.773438 -113.539062 -38.734375 -117.78125 Z M -35.96875 -120.296875 "/></g></g></g><g fill="#d0a933" fill-opacity="1"><g transform="translate(441.819186, 326.231348)"><g><path d="M -1.671875 -82.640625 L 57.8125 -82.640625 L 67.28125 -73.046875 L 67.28125 -13.3125 C 67.28125 -11.550781 68.578125 -9.488281 71.171875 -7.125 C 73.773438 -4.769531 76.816406 -2.734375 80.296875 -1.015625 C 83.773438 0.703125 86.710938 1.5625 89.109375 1.5625 C 90.234375 1.5625 91.351562 1.238281 92.46875 0.59375 C 93.59375 -0.0390625 94.550781 -0.914062 95.34375 -2.03125 L 104.34375 3.59375 C 101.863281 6.070312 99.304688 7.3125 96.671875 7.3125 C 92.109375 7.3125 86.707031 5.734375 80.46875 2.578125 C 74.238281 -0.578125 68.84375 -4.332031 64.28125 -8.6875 C 59.726562 -13.050781 57.453125 -16.875 57.453125 -20.15625 L 57.453125 -38.265625 C 54.410156 -41.703125 51.070312 -44.359375 47.4375 -46.234375 C 43.800781 -48.109375 40.0625 -49.046875 36.21875 -49.046875 C 32.144531 -49.046875 29.664062 -48.769531 28.78125 -48.21875 C 33.414062 -44.375 37.015625 -40.570312 39.578125 -36.8125 C 42.140625 -33.0625 43.421875 -29.742188 43.421875 -26.859375 C 43.421875 -23.660156 42.160156 -20.921875 39.640625 -18.640625 C 37.117188 -16.367188 34.179688 -15.234375 30.828125 -15.234375 C 26.984375 -15.234375 23.0625 -16.507812 19.0625 -19.0625 C 15.070312 -21.625 11.734375 -24.84375 9.046875 -28.71875 C 6.367188 -32.601562 5.03125 -36.34375 5.03125 -39.9375 C 5.03125 -42.894531 6.128906 -45.710938 8.328125 -48.390625 C 10.535156 -51.066406 13.4375 -53.242188 17.03125 -54.921875 C 20.625 -56.609375 24.382812 -57.453125 28.3125 -57.453125 C 33.582031 -57.453125 38.753906 -56.171875 43.828125 -53.609375 C 48.910156 -51.054688 53.453125 -47.5 57.453125 -42.9375 L 57.453125 -73.046875 L -1.671875 -73.046875 Z M 63.203125 -82.640625 L 81.203125 -82.640625 L 81.203125 -73.046875 L 72.796875 -73.046875 Z M 23.875 -22.421875 C 26.75 -22.421875 29.285156 -23.378906 31.484375 -25.296875 C 33.679688 -27.222656 34.78125 -29.546875 34.78125 -32.265625 C 34.78125 -34.335938 33.921875 -36.671875 32.203125 -39.265625 C 30.484375 -41.867188 28.101562 -44.410156 25.0625 -46.890625 C 21.3125 -45.535156 18.296875 -43.65625 16.015625 -41.25 C 13.734375 -38.851562 12.59375 -36.257812 12.59375 -33.46875 C 12.59375 -31.78125 13.171875 -30.078125 14.328125 -28.359375 C 15.492188 -26.640625 16.953125 -25.21875 18.703125 -24.09375 C 20.460938 -22.976562 22.1875 -22.421875 23.875 -22.421875 Z M 23.875 -22.421875 "/></g></g></g><g fill="#d0a933" fill-opacity="1"><g transform="translate(521.460353, 326.231348)"><g/></g></g><g fill="#d0a933" fill-opacity="1"><g transform="translate(547.247784, 326.231348)"><g><path d="M 50.25 -73.046875 L 50.25 -53.375 C 55.289062 -58.96875 59.929688 -61.765625 64.171875 -61.765625 C 67.046875 -61.765625 70.019531 -60.664062 73.09375 -58.46875 C 76.175781 -56.269531 78.71875 -53.53125 80.71875 -50.25 C 82.71875 -46.976562 83.71875 -43.820312 83.71875 -40.78125 C 83.71875 -38.0625 82.796875 -35.378906 80.953125 -32.734375 C 79.117188 -30.097656 76.703125 -27.835938 73.703125 -25.953125 C 70.703125 -24.078125 67.644531 -22.984375 64.53125 -22.671875 L 58.890625 -30.46875 C 63.765625 -31.257812 67.84375 -33.273438 71.125 -36.515625 C 74.40625 -39.753906 76.046875 -43.375 76.046875 -47.375 C 76.046875 -49.132812 75.425781 -50.710938 74.1875 -52.109375 C 72.945312 -53.515625 71.484375 -54.21875 69.796875 -54.21875 C 66.835938 -54.21875 63.679688 -52.957031 60.328125 -50.4375 C 56.972656 -47.914062 53.613281 -44.414062 50.25 -39.9375 L 50.25 -13.3125 C 50.25 -11.550781 51.546875 -9.488281 54.140625 -7.125 C 56.742188 -4.769531 59.804688 -2.734375 63.328125 -1.015625 C 66.847656 0.703125 69.804688 1.5625 72.203125 1.5625 C 74.035156 1.5625 76.070312 0.363281 78.3125 -2.03125 L 87.1875 3.59375 C 84.875 6.070312 82.359375 7.3125 79.640625 7.3125 C 75.003906 7.3125 69.566406 5.734375 63.328125 2.578125 C 57.085938 -0.578125 51.6875 -4.332031 47.125 -8.6875 C 42.570312 -13.050781 40.296875 -16.789062 40.296875 -19.90625 L 40.296875 -32.390625 C 35.984375 -28.066406 31.425781 -25.90625 26.625 -25.90625 C 22.945312 -25.90625 19.347656 -26.941406 15.828125 -29.015625 C 12.304688 -31.097656 9.425781 -33.757812 7.1875 -37 C 4.957031 -40.238281 3.84375 -43.457031 3.84375 -46.65625 C 3.84375 -49.21875 4.757812 -51.71875 6.59375 -54.15625 C 8.4375 -56.59375 10.796875 -58.570312 13.671875 -60.09375 C 16.546875 -61.613281 19.460938 -62.375 22.421875 -62.375 L 28.90625 -62.375 C 30.664062 -62.375 33.460938 -60.050781 37.296875 -55.40625 L 36.34375 -53.25 C 34.101562 -54.53125 32.265625 -55.171875 30.828125 -55.171875 C 27.628906 -55.171875 24.53125 -54.488281 21.53125 -53.125 C 18.53125 -51.769531 16.109375 -49.972656 14.265625 -47.734375 C 12.429688 -45.492188 11.515625 -43.132812 11.515625 -40.65625 C 11.515625 -38.738281 12.375 -37.0625 14.09375 -35.625 C 15.8125 -34.1875 17.867188 -33.46875 20.265625 -33.46875 C 23.785156 -33.46875 27.300781 -34.445312 30.8125 -36.40625 C 34.332031 -38.363281 37.492188 -41.140625 40.296875 -44.734375 L 40.296875 -73.046875 L -1.671875 -73.046875 L -1.671875 -82.640625 L 41.265625 -82.640625 Z M 89.59375 -73.046875 L 55.890625 -73.046875 L 46.78125 -82.640625 L 89.59375 -82.640625 Z M 89.59375 -73.046875 "/></g></g></g><g fill="#d0a933" fill-opacity="1"><g transform="translate(610.097129, 326.231348)"><g><path d="M -69.796875 -120.296875 C -68.765625 -118.378906 -67.566406 -116.835938 -66.203125 -115.671875 C -64.847656 -114.515625 -63.570312 -113.9375 -62.375 -113.9375 C -61.25 -113.9375 -60.1875 -114.113281 -59.1875 -114.46875 C -58.1875 -114.832031 -56.96875 -115.335938 -55.53125 -115.984375 C -53.132812 -117.179688 -51.253906 -117.78125 -49.890625 -117.78125 C -48.296875 -117.78125 -46.457031 -117.019531 -44.375 -115.5 C -42.300781 -113.976562 -40.144531 -111.859375 -37.90625 -109.140625 L -16.3125 -82.640625 L -20.875 -82.640625 L -34.90625 -98.828125 C -39.382812 -104.347656 -42.820312 -107.109375 -45.21875 -107.109375 C -46.332031 -107.109375 -48.210938 -106.585938 -50.859375 -105.546875 C -53.734375 -104.585938 -55.53125 -104.109375 -56.25 -104.109375 C -58.488281 -104.109375 -61.023438 -105.328125 -63.859375 -107.765625 C -66.703125 -110.203125 -69.601562 -113.539062 -72.5625 -117.78125 Z M -69.796875 -120.296875 "/></g></g></g><g fill="#d0a933" fill-opacity="1"><g transform="translate(635.284863, 326.231348)"><g/></g></g><g fill="#d0a933" fill-opacity="1"><g transform="translate(661.072294, 326.231348)"><g><path d="M -1.671875 -82.640625 L 60.921875 -82.640625 L 70.515625 -73.046875 L 70.515625 -13.3125 C 70.515625 -11.550781 71.8125 -9.488281 74.40625 -7.125 C 77.007812 -4.769531 80.050781 -2.734375 83.53125 -1.015625 C 87.007812 0.703125 89.953125 1.5625 92.359375 1.5625 C 94.273438 1.5625 96.351562 0.363281 98.59375 -2.03125 L 107.34375 3.59375 C 105.101562 6.070312 102.582031 7.3125 99.78125 7.3125 C 95.226562 7.3125 89.851562 5.734375 83.65625 2.578125 C 77.457031 -0.578125 72.078125 -4.332031 67.515625 -8.6875 C 62.960938 -13.050781 60.6875 -16.875 60.6875 -20.15625 L 60.6875 -73.046875 L 29.75 -73.046875 C 36.382812 -61.609375 39.703125 -51.210938 39.703125 -41.859375 C 39.703125 -39.140625 39 -36.457031 37.59375 -33.8125 C 36.195312 -31.175781 34.378906 -29.019531 32.140625 -27.34375 C 29.898438 -25.664062 27.539062 -24.828125 25.0625 -24.828125 C 21.382812 -24.828125 17.925781 -25.566406 14.6875 -27.046875 C 11.445312 -28.523438 8.847656 -30.460938 6.890625 -32.859375 C 4.929688 -35.265625 3.953125 -37.742188 3.953125 -40.296875 C 3.953125 -43.097656 5.113281 -45.632812 7.4375 -47.90625 C 9.757812 -50.1875 12.273438 -51.328125 14.984375 -51.328125 C 17.222656 -51.328125 19.441406 -50.75 21.640625 -49.59375 C 23.847656 -48.4375 25.671875 -46.859375 27.109375 -44.859375 L 25.3125 -42.9375 C 24.59375 -43.65625 23.851562 -44.210938 23.09375 -44.609375 C 22.332031 -45.015625 21.710938 -45.21875 21.234375 -45.21875 C 20.035156 -45.21875 18.734375 -44.695312 17.328125 -43.65625 C 15.929688 -42.613281 14.769531 -41.3125 13.84375 -39.75 C 12.925781 -38.195312 12.46875 -36.738281 12.46875 -35.375 C 12.46875 -34.101562 12.945312 -33.003906 13.90625 -32.078125 C 14.875 -31.160156 15.992188 -30.703125 17.265625 -30.703125 C 19.984375 -30.703125 22.539062 -31.640625 24.9375 -33.515625 C 27.34375 -35.398438 29.242188 -37.898438 30.640625 -41.015625 C 32.046875 -44.140625 32.75 -47.457031 32.75 -50.96875 C 32.75 -56.644531 30.1875 -64.003906 25.0625 -73.046875 L -1.671875 -73.046875 Z M 66.453125 -82.640625 L 84.4375 -82.640625 L 84.4375 -73.046875 L 75.921875 -73.046875 Z M 66.453125 -82.640625 "/></g></g></g><g fill="#d0a933" fill-opacity="1"><g transform="translate(743.711998, 326.231348)"><g><path d="M -33.703125 -101.59375 C -33.703125 -104.070312 -32.863281 -106.488281 -31.1875 -108.84375 C -29.507812 -111.195312 -27.3125 -113.113281 -24.59375 -114.59375 C -21.875 -116.070312 -19.070312 -116.8125 -16.1875 -116.8125 C -12.425781 -116.8125 -9.125 -115.929688 -6.28125 -114.171875 C -3.445312 -112.421875 -1.09375 -110.34375 0.78125 -107.9375 C 2.65625 -105.539062 4.675781 -102.582031 6.84375 -99.0625 C 8.519531 -96.34375 9.835938 -94.382812 10.796875 -93.1875 C 11.753906 -91.988281 12.753906 -91.390625 13.796875 -91.390625 C 14.515625 -91.390625 15.148438 -91.648438 15.703125 -92.171875 C 16.265625 -92.691406 16.988281 -93.507812 17.875 -94.625 L 23.625 -87.671875 C 22.507812 -86.316406 21.226562 -85.273438 19.78125 -84.546875 C 18.34375 -83.828125 16.90625 -83.46875 15.46875 -83.46875 C 13.632812 -83.46875 11.976562 -84.328125 10.5 -86.046875 C 9.019531 -87.773438 7.160156 -90.515625 4.921875 -94.265625 C 2.203125 -98.828125 -0.253906 -102.304688 -2.453125 -104.703125 C -4.648438 -107.097656 -7.347656 -108.296875 -10.546875 -108.296875 C -12.785156 -108.296875 -15.023438 -107.71875 -17.265625 -106.5625 C -19.503906 -105.40625 -21.34375 -103.882812 -22.78125 -102 C -24.226562 -100.125 -24.953125 -98.144531 -24.953125 -96.0625 C -24.953125 -93.34375 -22.59375 -89.867188 -17.875 -85.640625 L -20.875 -83.46875 C -24.863281 -86.507812 -28 -89.566406 -30.28125 -92.640625 C -32.5625 -95.722656 -33.703125 -98.707031 -33.703125 -101.59375 Z M -1.671875 -82.640625 L 12.46875 -82.640625 L 22.0625 -73.046875 L 22.0625 -13.3125 C 22.0625 -11.550781 23.34375 -9.488281 25.90625 -7.125 C 28.46875 -4.769531 31.484375 -2.734375 34.953125 -1.015625 C 38.429688 0.703125 41.375 1.5625 43.78125 1.5625 C 44.894531 1.5625 46.03125 1.238281 47.1875 0.59375 C 48.351562 -0.0390625 49.335938 -0.914062 50.140625 -2.03125 L 58.890625 3.59375 C 56.648438 6.070312 54.128906 7.3125 51.328125 7.3125 C 46.691406 7.3125 41.273438 5.710938 35.078125 2.515625 C 28.878906 -0.679688 23.519531 -4.457031 19 -8.8125 C 14.488281 -13.175781 12.234375 -16.957031 12.234375 -20.15625 L 12.234375 -73.046875 L -1.671875 -73.046875 Z M 17.984375 -82.640625 L 35.984375 -82.640625 L 35.984375 -73.046875 L 27.46875 -73.046875 Z M 17.984375 -82.640625 "/></g></g></g><g fill="#d0a933" fill-opacity="1"><g transform="translate(778.015262, 326.231348)"><g><path d="M -1.671875 -82.640625 L 56.25 -82.640625 L 65.71875 -73.046875 L 65.71875 -13.3125 C 65.71875 -11.550781 67.015625 -9.488281 69.609375 -7.125 C 72.210938 -4.769531 75.253906 -2.734375 78.734375 -1.015625 C 82.210938 0.703125 85.148438 1.5625 87.546875 1.5625 C 89.953125 1.5625 92.035156 0.363281 93.796875 -2.03125 L 102.671875 3.59375 C 100.347656 6.070312 97.828125 7.3125 95.109375 7.3125 C 90.554688 7.3125 85.160156 5.710938 78.921875 2.515625 C 72.679688 -0.679688 67.28125 -4.457031 62.71875 -8.8125 C 58.164062 -13.175781 55.890625 -16.957031 55.890625 -20.15625 L 55.890625 -42.9375 C 53.492188 -45.332031 50.875 -47.191406 48.03125 -48.515625 C 45.195312 -49.835938 42.539062 -50.5 40.0625 -50.5 C 35.5 -50.5 31.257812 -49.476562 27.34375 -47.4375 C 23.425781 -45.394531 20.304688 -42.65625 17.984375 -39.21875 C 15.671875 -35.78125 14.515625 -32.0625 14.515625 -28.0625 C 14.515625 -24.78125 15.613281 -21.117188 17.8125 -17.078125 C 20.007812 -13.046875 22.6875 -9.648438 25.84375 -6.890625 C 29 -4.140625 31.976562 -2.765625 34.78125 -2.765625 C 35.582031 -2.765625 36.460938 -2.984375 37.421875 -3.421875 C 38.378906 -3.859375 39.257812 -4.515625 40.0625 -5.390625 L 47.734375 0.84375 C 47.015625 1.71875 45.953125 2.375 44.546875 2.8125 C 43.148438 3.257812 41.613281 3.484375 39.9375 3.484375 C 34.738281 3.484375 29.5625 1.40625 24.40625 -2.75 C 19.25 -6.914062 14.988281 -12.09375 11.625 -18.28125 C 8.269531 -24.476562 6.59375 -30.414062 6.59375 -36.09375 C 6.59375 -40.175781 7.710938 -43.9375 9.953125 -47.375 C 12.191406 -50.8125 15.207031 -53.53125 19 -55.53125 C 22.800781 -57.53125 26.898438 -58.53125 31.296875 -58.53125 C 34.898438 -58.53125 38.859375 -57.609375 43.171875 -55.765625 C 47.492188 -53.929688 51.734375 -51.332031 55.890625 -47.96875 L 55.890625 -73.046875 L -1.671875 -73.046875 Z M 61.53125 -82.640625 L 79.640625 -82.640625 L 79.640625 -73.046875 L 71.359375 -73.046875 Z M 61.53125 -82.640625 "/></g></g></g></svg>